<svg xmlns="http://www.w3.org/2000/svg" xmlns:xlink="http://www.w3.org/1999/xlink" width="40" zoomAndPan="magnify" viewBox="0 0 30 44.999999" height="60" preserveAspectRatio="xMidYMid meet" version="1.0"><defs><g/><clipPath id="1a1891c447"><path d="M 2 0.402344 L 10 0.402344 L 10 12 L 2 12 Z M 2 0.402344 " clip-rule="nonzero"/></clipPath><clipPath id="5a3fc60781"><path d="M 6 0.402344 L 21 0.402344 L 21 16 L 6 16 Z M 6 0.402344 " clip-rule="nonzero"/></clipPath><clipPath id="7fcf542eae"><path d="M 0 8.992188 L 30 8.992188 L 30 44.648438 L 0 44.648438 Z M 0 8.992188 " clip-rule="nonzero"/></clipPath></defs><g clip-path="url(#1a1891c447)"><path fill="#100f0d" d="M 6.730469 2.527344 L 2.230469 0.402344 L 5.152344 11.980469 L 9.429688 7.269531 L 6.730469 2.527344 " fill-opacity="1" fill-rule="nonzero"/></g><g clip-path="url(#5a3fc60781)"><path fill="#100f0d" d="M 12.511719 5.6875 L 12.785156 5.386719 L 15.078125 2.863281 L 14.699219 6.292969 L 14.660156 6.660156 L 18.132812 8.230469 L 14.402344 9.003906 L 13.984375 12.796875 L 12.09375 9.484375 L 8.359375 10.257812 L 10.925781 7.433594 L 9.035156 4.117188 Z M 9.929688 7.324219 L 6.082031 11.558594 L 11.679688 10.398438 L 14.515625 15.371094 L 15.140625 9.679688 L 19.816406 8.707031 L 20.742188 8.515625 L 15.527344 6.160156 L 16.15625 0.46875 L 12.308594 4.707031 L 7.09375 2.351562 L 7.367188 2.828125 L 9.929688 7.324219 " fill-opacity="1" fill-rule="nonzero"/></g><g clip-path="url(#7fcf542eae)"><path fill="#100f0d" d="M 29.1875 42.214844 L 29.1875 43.835938 L 0.8125 43.835938 L 0.8125 42.214844 Z M 8.027344 33.6875 L 21.972656 33.6875 L 25.515625 41.402344 L 4.484375 41.402344 Z M 22.492188 32.875 L 19.878906 32.875 L 23.714844 10.550781 L 23.421875 10.410156 L 19.1875 32.875 L 12.128906 32.875 L 22.84375 10.136719 L 20.425781 8.996094 L 15.511719 10.015625 L 14.78125 16.65625 L 11.472656 10.855469 L 5.199219 12.160156 L 10.429688 32.875 L 7.507812 32.875 L 3.589844 41.402344 L 0 41.402344 L 0 44.648438 L 30 44.648438 L 30 41.402344 L 26.40625 41.402344 L 22.492188 32.875 " fill-opacity="1" fill-rule="nonzero"/></g><path fill="#100f0d" d="M 18.851562 32.472656 L 22.90625 10.957031 L 12.769531 32.472656 Z M 18.851562 32.472656 " fill-opacity="1" fill-rule="nonzero"/><g fill="#000000" fill-opacity="1"><g transform="translate(5.74806, 39.812148)"><g><path d="M 0.046875 -0.203125 L 0.40625 -0.203125 L 0.40625 -2 L 0.046875 -2 L 0.046875 -2.203125 L 0.703125 -2.203125 C 0.867188 -2.203125 1.019531 -2.191406 1.15625 -2.171875 C 1.289062 -2.148438 1.421875 -2.113281 1.546875 -2.0625 C 1.679688 -2.007812 1.789062 -1.941406 1.875 -1.859375 C 1.96875 -1.785156 2.039062 -1.6875 2.09375 -1.5625 C 2.144531 -1.425781 2.171875 -1.273438 2.171875 -1.109375 C 2.171875 -0.960938 2.148438 -0.828125 2.109375 -0.703125 C 2.066406 -0.578125 2.003906 -0.46875 1.921875 -0.375 C 1.835938 -0.289062 1.734375 -0.21875 1.609375 -0.15625 C 1.492188 -0.101562 1.367188 -0.0664062 1.234375 -0.046875 C 1.085938 -0.015625 0.929688 0 0.765625 0 L 0.046875 0 Z M 0.75 -0.203125 C 0.875 -0.203125 0.984375 -0.210938 1.078125 -0.234375 C 1.179688 -0.253906 1.28125 -0.285156 1.375 -0.328125 C 1.46875 -0.367188 1.539062 -0.421875 1.59375 -0.484375 C 1.65625 -0.554688 1.707031 -0.644531 1.75 -0.75 C 1.78125 -0.851562 1.796875 -0.972656 1.796875 -1.109375 C 1.796875 -1.210938 1.785156 -1.304688 1.765625 -1.390625 C 1.742188 -1.484375 1.71875 -1.554688 1.6875 -1.609375 C 1.65625 -1.671875 1.613281 -1.722656 1.5625 -1.765625 C 1.507812 -1.816406 1.453125 -1.851562 1.390625 -1.875 C 1.335938 -1.90625 1.273438 -1.925781 1.203125 -1.9375 C 1.128906 -1.957031 1.054688 -1.972656 0.984375 -1.984375 C 0.910156 -1.992188 0.832031 -2 0.75 -2 Z M 0.75 -0.203125 "/></g></g><g transform="translate(8.044931, 39.812148)"><g><path d="M 0.875 0.046875 C 0.757812 0.046875 0.648438 0.0234375 0.546875 -0.015625 C 0.453125 -0.0664062 0.375 -0.132812 0.3125 -0.21875 C 0.238281 -0.289062 0.1875 -0.375 0.15625 -0.46875 C 0.125 -0.5625 0.109375 -0.660156 0.109375 -0.765625 C 0.109375 -0.859375 0.117188 -0.945312 0.140625 -1.03125 C 0.160156 -1.113281 0.191406 -1.1875 0.234375 -1.25 C 0.328125 -1.40625 0.445312 -1.507812 0.59375 -1.5625 C 0.675781 -1.59375 0.765625 -1.609375 0.859375 -1.609375 C 0.953125 -1.609375 1.039062 -1.59375 1.125 -1.5625 C 1.21875 -1.53125 1.296875 -1.476562 1.359375 -1.40625 C 1.421875 -1.34375 1.472656 -1.257812 1.515625 -1.15625 C 1.554688 -1.050781 1.578125 -0.9375 1.578125 -0.8125 L 0.4375 -0.8125 L 0.4375 -0.796875 C 0.4375 -0.628906 0.472656 -0.484375 0.546875 -0.359375 C 0.585938 -0.304688 0.632812 -0.265625 0.6875 -0.234375 C 0.75 -0.203125 0.820312 -0.1875 0.90625 -0.1875 C 0.96875 -0.1875 1.03125 -0.195312 1.09375 -0.21875 C 1.164062 -0.25 1.222656 -0.289062 1.265625 -0.34375 C 1.316406 -0.40625 1.351562 -0.472656 1.375 -0.546875 L 1.546875 -0.484375 C 1.515625 -0.378906 1.46875 -0.285156 1.40625 -0.203125 C 1.34375 -0.128906 1.265625 -0.0664062 1.171875 -0.015625 C 1.085938 0.0234375 0.988281 0.046875 0.875 0.046875 Z M 1.25 -0.96875 C 1.25 -1.0625 1.226562 -1.140625 1.1875 -1.203125 C 1.15625 -1.273438 1.109375 -1.332031 1.046875 -1.375 C 0.992188 -1.414062 0.929688 -1.4375 0.859375 -1.4375 C 0.785156 -1.4375 0.71875 -1.414062 0.65625 -1.375 C 0.601562 -1.332031 0.554688 -1.273438 0.515625 -1.203125 C 0.484375 -1.140625 0.460938 -1.0625 0.453125 -0.96875 Z M 1.25 -0.96875 "/></g></g><g transform="translate(9.729499, 39.812148)"><g><path d="M 0.515625 0.046875 C 0.441406 0.046875 0.375 0.03125 0.3125 0 C 0.25 -0.03125 0.195312 -0.0703125 0.15625 -0.125 C 0.125 -0.1875 0.109375 -0.253906 0.109375 -0.328125 C 0.109375 -0.378906 0.117188 -0.425781 0.140625 -0.46875 C 0.171875 -0.519531 0.210938 -0.566406 0.265625 -0.609375 C 0.304688 -0.640625 0.351562 -0.664062 0.40625 -0.6875 C 0.457031 -0.71875 0.515625 -0.742188 0.578125 -0.765625 C 0.691406 -0.804688 0.796875 -0.859375 0.890625 -0.921875 C 0.929688 -0.941406 0.960938 -0.96875 0.984375 -1 C 1.015625 -1.039062 1.03125 -1.082031 1.03125 -1.125 C 1.03125 -1.238281 1.003906 -1.320312 0.953125 -1.375 C 0.898438 -1.425781 0.820312 -1.453125 0.71875 -1.453125 C 0.65625 -1.453125 0.59375 -1.441406 0.53125 -1.421875 C 0.46875 -1.398438 0.414062 -1.375 0.375 -1.34375 C 0.4375 -1.34375 0.484375 -1.320312 0.515625 -1.28125 C 0.554688 -1.25 0.578125 -1.210938 0.578125 -1.171875 C 0.578125 -1.128906 0.566406 -1.09375 0.546875 -1.0625 C 0.535156 -1.03125 0.515625 -1.003906 0.484375 -0.984375 C 0.453125 -0.960938 0.414062 -0.953125 0.375 -0.953125 C 0.320312 -0.953125 0.273438 -0.972656 0.234375 -1.015625 C 0.191406 -1.054688 0.171875 -1.117188 0.171875 -1.203125 C 0.171875 -1.234375 0.179688 -1.269531 0.203125 -1.3125 C 0.234375 -1.363281 0.269531 -1.414062 0.3125 -1.46875 C 0.363281 -1.507812 0.429688 -1.539062 0.515625 -1.5625 C 0.597656 -1.59375 0.6875 -1.609375 0.78125 -1.609375 C 0.863281 -1.609375 0.9375 -1.597656 1 -1.578125 C 1.070312 -1.566406 1.132812 -1.539062 1.1875 -1.5 C 1.238281 -1.457031 1.273438 -1.398438 1.296875 -1.328125 C 1.328125 -1.265625 1.34375 -1.1875 1.34375 -1.09375 L 1.34375 -0.421875 C 1.34375 -0.378906 1.347656 -0.335938 1.359375 -0.296875 C 1.367188 -0.265625 1.390625 -0.238281 1.421875 -0.21875 C 1.453125 -0.1875 1.488281 -0.171875 1.53125 -0.171875 C 1.644531 -0.171875 1.703125 -0.253906 1.703125 -0.421875 L 1.703125 -0.640625 L 1.875 -0.640625 L 1.875 -0.453125 C 1.875 -0.359375 1.863281 -0.273438 1.84375 -0.203125 C 1.820312 -0.140625 1.789062 -0.09375 1.75 -0.0625 C 1.707031 -0.0195312 1.660156 0.00390625 1.609375 0.015625 C 1.566406 0.0351562 1.515625 0.046875 1.453125 0.046875 C 1.390625 0.046875 1.328125 0.03125 1.265625 0 C 1.210938 -0.03125 1.164062 -0.0703125 1.125 -0.125 C 1.082031 -0.175781 1.0625 -0.242188 1.0625 -0.328125 C 1.03125 -0.253906 0.988281 -0.1875 0.9375 -0.125 C 0.882812 -0.0703125 0.820312 -0.03125 0.75 0 C 0.675781 0.03125 0.597656 0.046875 0.515625 0.046875 Z M 0.59375 -0.171875 C 0.65625 -0.171875 0.722656 -0.1875 0.796875 -0.21875 C 0.867188 -0.257812 0.925781 -0.3125 0.96875 -0.375 C 1.007812 -0.4375 1.03125 -0.492188 1.03125 -0.546875 L 1.03125 -0.859375 C 0.976562 -0.796875 0.910156 -0.738281 0.828125 -0.6875 C 0.753906 -0.644531 0.6875 -0.609375 0.625 -0.578125 C 0.5625 -0.554688 0.507812 -0.523438 0.46875 -0.484375 C 0.4375 -0.441406 0.421875 -0.390625 0.421875 -0.328125 C 0.421875 -0.285156 0.4375 -0.25 0.46875 -0.21875 C 0.5 -0.1875 0.539062 -0.171875 0.59375 -0.171875 Z M 0.59375 -0.171875 "/></g></g><g transform="translate(11.585453, 39.812148)"><g><path d="M 0.078125 -0.171875 L 0.359375 -0.171875 L 0.359375 -1.40625 L 0.078125 -1.40625 L 0.078125 -1.578125 L 0.625 -1.59375 L 0.65625 -1.28125 C 0.6875 -1.351562 0.726562 -1.410156 0.78125 -1.453125 C 0.84375 -1.503906 0.90625 -1.539062 0.96875 -1.5625 C 1.039062 -1.59375 1.113281 -1.609375 1.1875 -1.609375 C 1.21875 -1.609375 1.242188 -1.609375 1.265625 -1.609375 C 1.296875 -1.609375 1.328125 -1.601562 1.359375 -1.59375 C 1.390625 -1.582031 1.421875 -1.566406 1.453125 -1.546875 C 1.484375 -1.535156 1.507812 -1.515625 1.53125 -1.484375 C 1.5625 -1.453125 1.585938 -1.414062 1.609375 -1.375 C 1.628906 -1.34375 1.644531 -1.296875 1.65625 -1.234375 C 1.664062 -1.179688 1.671875 -1.117188 1.671875 -1.046875 L 1.671875 -0.171875 L 1.96875 -0.171875 L 1.96875 0 L 1.09375 0 L 1.09375 -0.171875 L 1.359375 -0.171875 L 1.359375 -1.046875 C 1.359375 -1.171875 1.332031 -1.257812 1.28125 -1.3125 C 1.226562 -1.375 1.160156 -1.40625 1.078125 -1.40625 C 1.023438 -1.40625 0.972656 -1.394531 0.921875 -1.375 C 0.878906 -1.363281 0.84375 -1.335938 0.8125 -1.296875 C 0.78125 -1.265625 0.753906 -1.222656 0.734375 -1.171875 C 0.710938 -1.117188 0.695312 -1.066406 0.6875 -1.015625 C 0.675781 -0.972656 0.671875 -0.921875 0.671875 -0.859375 L 0.671875 -0.171875 L 0.9375 -0.171875 L 0.9375 0 L 0.078125 0 Z M 0.078125 -0.171875 "/></g></g><g transform="translate(13.576173, 39.812148)"><g/></g><g transform="translate(14.279297, 39.812148)"><g><path d="M 0.015625 0 L 0.015625 -0.203125 L 0.28125 -0.203125 L 1.046875 -2.203125 L 1.390625 -2.203125 L 2.171875 -0.203125 L 2.421875 -0.203125 L 2.421875 0 L 1.484375 0 L 1.484375 -0.203125 L 1.796875 -0.203125 L 1.59375 -0.734375 L 0.75 -0.734375 L 0.5625 -0.203125 L 0.9375 -0.203125 L 0.9375 0 Z M 0.828125 -0.921875 L 1.53125 -0.921875 L 1.171875 -1.921875 Z M 0.828125 -0.921875 "/></g></g><g transform="translate(16.713864, 39.812148)"><g><path d="M 0.78125 0.0625 C 0.726562 0.0625 0.6875 0.046875 0.65625 0.015625 C 0.632812 -0.015625 0.613281 -0.0703125 0.59375 -0.15625 L 0.265625 -1.40625 L 0.015625 -1.40625 L 0.015625 -1.578125 L 0.828125 -1.578125 L 0.828125 -1.40625 L 0.59375 -1.40625 L 0.84375 -0.328125 L 1.1875 -1.40625 L 1.453125 -1.40625 L 1.765625 -0.3125 L 2.046875 -1.40625 L 1.796875 -1.40625 L 1.796875 -1.578125 L 2.46875 -1.578125 L 2.46875 -1.40625 L 2.265625 -1.40625 L 1.9375 -0.15625 C 1.914062 -0.101562 1.894531 -0.0625 1.875 -0.03125 C 1.863281 0 1.847656 0.0195312 1.828125 0.03125 C 1.804688 0.0507812 1.773438 0.0625 1.734375 0.0625 C 1.691406 0.0625 1.65625 0.046875 1.625 0.015625 C 1.59375 -0.015625 1.566406 -0.0703125 1.546875 -0.15625 L 1.296875 -1.09375 L 0.984375 -0.15625 C 0.960938 -0.101562 0.941406 -0.0625 0.921875 -0.03125 C 0.910156 0 0.890625 0.0195312 0.859375 0.03125 C 0.835938 0.0507812 0.8125 0.0625 0.78125 0.0625 Z M 0.78125 0.0625 "/></g></g><g transform="translate(19.185052, 39.812148)"><g><path d="M 0.515625 0.046875 C 0.441406 0.046875 0.375 0.03125 0.3125 0 C 0.25 -0.03125 0.195312 -0.0703125 0.15625 -0.125 C 0.125 -0.1875 0.109375 -0.253906 0.109375 -0.328125 C 0.109375 -0.378906 0.117188 -0.425781 0.140625 -0.46875 C 0.171875 -0.519531 0.210938 -0.566406 0.265625 -0.609375 C 0.304688 -0.640625 0.351562 -0.664062 0.40625 -0.6875 C 0.457031 -0.71875 0.515625 -0.742188 0.578125 -0.765625 C 0.691406 -0.804688 0.796875 -0.859375 0.890625 -0.921875 C 0.929688 -0.941406 0.960938 -0.96875 0.984375 -1 C 1.015625 -1.039062 1.03125 -1.082031 1.03125 -1.125 C 1.03125 -1.238281 1.003906 -1.320312 0.953125 -1.375 C 0.898438 -1.425781 0.820312 -1.453125 0.71875 -1.453125 C 0.65625 -1.453125 0.59375 -1.441406 0.53125 -1.421875 C 0.46875 -1.398438 0.414062 -1.375 0.375 -1.34375 C 0.4375 -1.34375 0.484375 -1.320312 0.515625 -1.28125 C 0.554688 -1.25 0.578125 -1.210938 0.578125 -1.171875 C 0.578125 -1.128906 0.566406 -1.09375 0.546875 -1.0625 C 0.535156 -1.03125 0.515625 -1.003906 0.484375 -0.984375 C 0.453125 -0.960938 0.414062 -0.953125 0.375 -0.953125 C 0.320312 -0.953125 0.273438 -0.972656 0.234375 -1.015625 C 0.191406 -1.054688 0.171875 -1.117188 0.171875 -1.203125 C 0.171875 -1.234375 0.179688 -1.269531 0.203125 -1.3125 C 0.234375 -1.363281 0.269531 -1.414062 0.3125 -1.46875 C 0.363281 -1.507812 0.429688 -1.539062 0.515625 -1.5625 C 0.597656 -1.59375 0.6875 -1.609375 0.78125 -1.609375 C 0.863281 -1.609375 0.9375 -1.597656 1 -1.578125 C 1.070312 -1.566406 1.132812 -1.539062 1.1875 -1.5 C 1.238281 -1.457031 1.273438 -1.398438 1.296875 -1.328125 C 1.328125 -1.265625 1.34375 -1.1875 1.34375 -1.09375 L 1.34375 -0.421875 C 1.34375 -0.378906 1.347656 -0.335938 1.359375 -0.296875 C 1.367188 -0.265625 1.390625 -0.238281 1.421875 -0.21875 C 1.453125 -0.1875 1.488281 -0.171875 1.53125 -0.171875 C 1.644531 -0.171875 1.703125 -0.253906 1.703125 -0.421875 L 1.703125 -0.640625 L 1.875 -0.640625 L 1.875 -0.453125 C 1.875 -0.359375 1.863281 -0.273438 1.84375 -0.203125 C 1.820312 -0.140625 1.789062 -0.09375 1.75 -0.0625 C 1.707031 -0.0195312 1.660156 0.00390625 1.609375 0.015625 C 1.566406 0.0351562 1.515625 0.046875 1.453125 0.046875 C 1.390625 0.046875 1.328125 0.03125 1.265625 0 C 1.210938 -0.03125 1.164062 -0.0703125 1.125 -0.125 C 1.082031 -0.175781 1.0625 -0.242188 1.0625 -0.328125 C 1.03125 -0.253906 0.988281 -0.1875 0.9375 -0.125 C 0.882812 -0.0703125 0.820312 -0.03125 0.75 0 C 0.675781 0.03125 0.597656 0.046875 0.515625 0.046875 Z M 0.59375 -0.171875 C 0.65625 -0.171875 0.722656 -0.1875 0.796875 -0.21875 C 0.867188 -0.257812 0.925781 -0.3125 0.96875 -0.375 C 1.007812 -0.4375 1.03125 -0.492188 1.03125 -0.546875 L 1.03125 -0.859375 C 0.976562 -0.796875 0.910156 -0.738281 0.828125 -0.6875 C 0.753906 -0.644531 0.6875 -0.609375 0.625 -0.578125 C 0.5625 -0.554688 0.507812 -0.523438 0.46875 -0.484375 C 0.4375 -0.441406 0.421875 -0.390625 0.421875 -0.328125 C 0.421875 -0.285156 0.4375 -0.25 0.46875 -0.21875 C 0.5 -0.1875 0.539062 -0.171875 0.59375 -0.171875 Z M 0.59375 -0.171875 "/></g></g><g transform="translate(21.041006, 39.812148)"><g><path d="M 0.078125 -0.171875 L 0.359375 -0.171875 L 0.359375 -1.40625 L 0.078125 -1.40625 L 0.078125 -1.578125 L 0.625 -1.59375 L 0.671875 -1.25 C 0.691406 -1.332031 0.734375 -1.410156 0.796875 -1.484375 C 0.828125 -1.523438 0.867188 -1.554688 0.921875 -1.578125 C 0.972656 -1.597656 1.03125 -1.609375 1.09375 -1.609375 C 1.144531 -1.609375 1.191406 -1.597656 1.234375 -1.578125 C 1.273438 -1.554688 1.304688 -1.523438 1.328125 -1.484375 C 1.359375 -1.453125 1.375 -1.410156 1.375 -1.359375 C 1.375 -1.316406 1.363281 -1.273438 1.34375 -1.234375 C 1.320312 -1.191406 1.296875 -1.160156 1.265625 -1.140625 C 1.234375 -1.128906 1.195312 -1.125 1.15625 -1.125 C 1.09375 -1.125 1.039062 -1.140625 1 -1.171875 C 0.96875 -1.210938 0.953125 -1.257812 0.953125 -1.3125 C 0.953125 -1.332031 0.953125 -1.351562 0.953125 -1.375 C 0.960938 -1.394531 0.972656 -1.414062 0.984375 -1.4375 L 1 -1.453125 C 0.945312 -1.453125 0.894531 -1.429688 0.84375 -1.390625 C 0.800781 -1.359375 0.769531 -1.3125 0.75 -1.25 C 0.695312 -1.125 0.671875 -0.988281 0.671875 -0.84375 L 0.671875 -0.171875 L 1 -0.171875 L 1 0 L 0.078125 0 Z M 0.078125 -0.171875 "/></g></g><g transform="translate(22.438465, 39.812148)"><g><path d="M 0.765625 0.046875 C 0.628906 0.046875 0.515625 0.0078125 0.421875 -0.0625 C 0.328125 -0.132812 0.253906 -0.234375 0.203125 -0.359375 C 0.148438 -0.484375 0.125 -0.625 0.125 -0.78125 C 0.125 -0.945312 0.148438 -1.09375 0.203125 -1.21875 C 0.253906 -1.34375 0.328125 -1.4375 0.421875 -1.5 C 0.523438 -1.570312 0.644531 -1.609375 0.78125 -1.609375 C 0.863281 -1.609375 0.941406 -1.585938 1.015625 -1.546875 C 1.097656 -1.503906 1.164062 -1.445312 1.21875 -1.375 L 1.21875 -2.03125 L 0.875 -2.03125 L 0.875 -2.203125 L 1.53125 -2.203125 L 1.53125 -0.171875 L 1.796875 -0.171875 L 1.796875 0 L 1.28125 0 L 1.21875 -0.25 C 1.164062 -0.15625 1.097656 -0.0820312 1.015625 -0.03125 C 0.929688 0.0195312 0.847656 0.046875 0.765625 0.046875 Z M 0.828125 -0.140625 C 0.898438 -0.140625 0.96875 -0.164062 1.03125 -0.21875 C 1.09375 -0.28125 1.140625 -0.359375 1.171875 -0.453125 C 1.210938 -0.554688 1.234375 -0.671875 1.234375 -0.796875 C 1.234375 -0.960938 1.203125 -1.109375 1.140625 -1.234375 C 1.109375 -1.304688 1.066406 -1.359375 1.015625 -1.390625 C 0.960938 -1.429688 0.90625 -1.453125 0.84375 -1.453125 C 0.769531 -1.453125 0.707031 -1.429688 0.65625 -1.390625 C 0.601562 -1.347656 0.566406 -1.296875 0.546875 -1.234375 C 0.484375 -1.097656 0.453125 -0.945312 0.453125 -0.78125 C 0.453125 -0.539062 0.503906 -0.359375 0.609375 -0.234375 C 0.671875 -0.171875 0.742188 -0.140625 0.828125 -0.140625 Z M 0.828125 -0.140625 "/></g></g></g><g fill="#000000" fill-opacity="1"><g transform="translate(9.144484, 36.519787)"><g><path d="M 0.09375 0.015625 L 0.09375 -0.015625 C 0.113281 -0.0234375 0.144531 -0.0351562 0.1875 -0.046875 C 0.238281 -0.0546875 0.273438 -0.0625 0.296875 -0.0625 C 0.316406 -0.0703125 0.332031 -0.0820312 0.34375 -0.09375 C 0.351562 -0.144531 0.359375 -0.222656 0.359375 -0.328125 L 0.34375 -1.46875 L 0.34375 -1.65625 C 0.34375 -1.695312 0.332031 -1.722656 0.3125 -1.734375 C 0.300781 -1.753906 0.265625 -1.769531 0.203125 -1.78125 C 0.148438 -1.789062 0.117188 -1.800781 0.109375 -1.8125 C 0.0976562 -1.820312 0.09375 -1.832031 0.09375 -1.84375 C 0.09375 -1.84375 0.09375 -1.847656 0.09375 -1.859375 C 0.101562 -1.867188 0.117188 -1.875 0.140625 -1.875 C 0.148438 -1.875 0.175781 -1.867188 0.21875 -1.859375 L 0.265625 -1.859375 C 0.273438 -1.859375 0.3125 -1.863281 0.375 -1.875 L 1 -1.875 L 1.453125 -1.890625 L 1.546875 -1.890625 C 1.566406 -1.890625 1.582031 -1.882812 1.59375 -1.875 C 1.601562 -1.863281 1.609375 -1.851562 1.609375 -1.84375 L 1.609375 -1.78125 L 1.625 -1.53125 C 1.625 -1.519531 1.625 -1.503906 1.625 -1.484375 C 1.601562 -1.472656 1.585938 -1.46875 1.578125 -1.46875 C 1.566406 -1.46875 1.5625 -1.472656 1.5625 -1.484375 C 1.550781 -1.492188 1.546875 -1.515625 1.546875 -1.546875 C 1.535156 -1.585938 1.519531 -1.640625 1.5 -1.703125 C 1.488281 -1.734375 1.46875 -1.753906 1.4375 -1.765625 C 1.375 -1.796875 1.273438 -1.8125 1.140625 -1.8125 C 1.066406 -1.8125 1.003906 -1.804688 0.953125 -1.796875 C 0.898438 -1.796875 0.863281 -1.796875 0.84375 -1.796875 L 0.734375 -1.796875 C 0.691406 -1.796875 0.65625 -1.789062 0.625 -1.78125 C 0.601562 -1.769531 0.59375 -1.75 0.59375 -1.71875 L 0.59375 -1.6875 C 0.59375 -1.644531 0.59375 -1.59375 0.59375 -1.53125 L 0.59375 -1.125 C 0.59375 -1.082031 0.59375 -1.046875 0.59375 -1.015625 L 1 -1.015625 C 1.113281 -1.015625 1.191406 -1.023438 1.234375 -1.046875 C 1.265625 -1.054688 1.285156 -1.070312 1.296875 -1.09375 C 1.304688 -1.09375 1.320312 -1.128906 1.34375 -1.203125 L 1.359375 -1.328125 C 1.367188 -1.335938 1.378906 -1.34375 1.390625 -1.34375 C 1.390625 -1.34375 1.394531 -1.335938 1.40625 -1.328125 C 1.40625 -1.304688 1.410156 -1.269531 1.421875 -1.21875 L 1.4375 -0.6875 C 1.414062 -0.675781 1.398438 -0.671875 1.390625 -0.671875 L 1.375 -0.6875 C 1.363281 -0.78125 1.34375 -0.851562 1.3125 -0.90625 C 1.289062 -0.925781 1.273438 -0.9375 1.265625 -0.9375 C 1.242188 -0.945312 1.128906 -0.953125 0.921875 -0.953125 C 0.859375 -0.953125 0.8125 -0.953125 0.78125 -0.953125 C 0.726562 -0.953125 0.691406 -0.953125 0.671875 -0.953125 L 0.65625 -0.953125 C 0.632812 -0.953125 0.613281 -0.945312 0.59375 -0.9375 C 0.59375 -0.925781 0.59375 -0.914062 0.59375 -0.90625 L 0.59375 -0.8125 C 0.59375 -0.800781 0.59375 -0.75 0.59375 -0.65625 L 0.59375 -0.171875 C 0.59375 -0.160156 0.597656 -0.144531 0.609375 -0.125 C 0.628906 -0.101562 0.664062 -0.0859375 0.71875 -0.078125 C 0.769531 -0.078125 0.820312 -0.0664062 0.875 -0.046875 C 0.894531 -0.0351562 0.90625 -0.0234375 0.90625 -0.015625 C 0.90625 -0.00390625 0.90625 0 0.90625 0 C 0.90625 0.0078125 0.898438 0.015625 0.890625 0.015625 C 0.804688 0.00390625 0.691406 0 0.546875 0 C 0.472656 0 0.394531 0.00390625 0.3125 0.015625 C 0.257812 0.0234375 0.191406 0.03125 0.109375 0.03125 Z M 0.09375 0.015625 "/></g></g><g transform="translate(10.83198, 36.519787)"><g><path d="M 1.1875 -0.203125 C 1.195312 -0.191406 1.203125 -0.179688 1.203125 -0.171875 C 1.203125 -0.160156 1.191406 -0.132812 1.171875 -0.09375 C 1.140625 -0.0390625 1.101562 -0.00390625 1.0625 0.015625 C 1.039062 0.0234375 1.007812 0.03125 0.96875 0.03125 C 0.894531 0.03125 0.84375 0.0078125 0.8125 -0.03125 C 0.789062 -0.0507812 0.773438 -0.0976562 0.765625 -0.171875 L 0.59375 -0.046875 C 0.539062 -0.015625 0.5 0.00390625 0.46875 0.015625 C 0.414062 0.0234375 0.359375 0.03125 0.296875 0.03125 C 0.242188 0.03125 0.203125 0.015625 0.171875 -0.015625 C 0.140625 -0.046875 0.125 -0.0820312 0.125 -0.125 C 0.125 -0.195312 0.164062 -0.28125 0.25 -0.375 C 0.332031 -0.46875 0.445312 -0.539062 0.59375 -0.59375 C 0.6875 -0.632812 0.75 -0.664062 0.78125 -0.6875 C 0.78125 -0.71875 0.78125 -0.75 0.78125 -0.78125 C 0.78125 -0.90625 0.757812 -0.988281 0.71875 -1.03125 C 0.6875 -1.082031 0.640625 -1.109375 0.578125 -1.109375 C 0.503906 -1.109375 0.441406 -1.082031 0.390625 -1.03125 C 0.347656 -0.988281 0.320312 -0.925781 0.3125 -0.84375 C 0.300781 -0.8125 0.285156 -0.78125 0.265625 -0.75 C 0.222656 -0.726562 0.191406 -0.71875 0.171875 -0.71875 C 0.148438 -0.71875 0.128906 -0.722656 0.109375 -0.734375 C 0.0976562 -0.742188 0.09375 -0.75 0.09375 -0.75 C 0.09375 -0.78125 0.117188 -0.835938 0.171875 -0.921875 C 0.234375 -1.015625 0.300781 -1.082031 0.375 -1.125 C 0.457031 -1.175781 0.53125 -1.203125 0.59375 -1.203125 C 0.675781 -1.203125 0.738281 -1.191406 0.78125 -1.171875 C 0.820312 -1.160156 0.859375 -1.132812 0.890625 -1.09375 C 0.921875 -1.050781 0.941406 -1.007812 0.953125 -0.96875 C 0.953125 -0.945312 0.953125 -0.867188 0.953125 -0.734375 L 0.953125 -0.34375 C 0.953125 -0.3125 0.953125 -0.289062 0.953125 -0.28125 C 0.953125 -0.25 0.953125 -0.226562 0.953125 -0.21875 C 0.953125 -0.1875 0.960938 -0.160156 0.984375 -0.140625 C 1.003906 -0.117188 1.023438 -0.109375 1.046875 -0.109375 C 1.085938 -0.109375 1.117188 -0.128906 1.140625 -0.171875 L 1.15625 -0.1875 C 1.164062 -0.1875 1.175781 -0.191406 1.1875 -0.203125 Z M 0.765625 -0.234375 C 0.765625 -0.359375 0.765625 -0.445312 0.765625 -0.5 C 0.765625 -0.53125 0.765625 -0.566406 0.765625 -0.609375 C 0.703125 -0.585938 0.632812 -0.550781 0.5625 -0.5 C 0.488281 -0.457031 0.429688 -0.40625 0.390625 -0.34375 C 0.359375 -0.289062 0.34375 -0.25 0.34375 -0.21875 C 0.34375 -0.175781 0.351562 -0.140625 0.375 -0.109375 C 0.40625 -0.0859375 0.4375 -0.078125 0.46875 -0.078125 C 0.5 -0.078125 0.535156 -0.0859375 0.578125 -0.109375 C 0.640625 -0.140625 0.703125 -0.179688 0.765625 -0.234375 Z M 0.765625 -0.234375 "/></g></g><g transform="translate(12.050727, 36.519787)"><g><path d="M 0.078125 -1.8125 L 0.078125 -1.84375 C 0.109375 -1.851562 0.140625 -1.863281 0.171875 -1.875 C 0.210938 -1.894531 0.285156 -1.921875 0.390625 -1.953125 L 0.453125 -1.953125 C 0.453125 -1.898438 0.453125 -1.867188 0.453125 -1.859375 C 0.453125 -1.054688 0.453125 -0.582031 0.453125 -0.4375 C 0.441406 -0.34375 0.4375 -0.289062 0.4375 -0.28125 C 0.4375 -0.175781 0.441406 -0.117188 0.453125 -0.109375 C 0.460938 -0.0859375 0.5 -0.0703125 0.5625 -0.0625 C 0.625 -0.0625 0.660156 -0.0546875 0.671875 -0.046875 C 0.679688 -0.046875 0.6875 -0.0390625 0.6875 -0.03125 C 0.6875 -0.0195312 0.679688 -0.0078125 0.671875 0 C 0.671875 0 0.664062 0 0.65625 0 C 0.644531 0 0.59375 0 0.5 0 L 0.0625 0 C 0.0390625 0 0.03125 0 0.03125 0 C 0.0195312 -0.0078125 0.015625 -0.0195312 0.015625 -0.03125 C 0.015625 -0.0390625 0.015625 -0.046875 0.015625 -0.046875 C 0.0234375 -0.046875 0.0625 -0.0507812 0.125 -0.0625 C 0.1875 -0.0820312 0.222656 -0.09375 0.234375 -0.09375 C 0.242188 -0.101562 0.253906 -0.117188 0.265625 -0.140625 C 0.265625 -0.179688 0.265625 -0.28125 0.265625 -0.4375 L 0.265625 -1.65625 C 0.265625 -1.6875 0.257812 -1.707031 0.25 -1.71875 C 0.238281 -1.738281 0.21875 -1.753906 0.1875 -1.765625 C 0.132812 -1.785156 0.0976562 -1.800781 0.078125 -1.8125 Z M 0.078125 -1.8125 "/></g></g><g transform="translate(12.737737, 36.519787)"><g><path d="M 0.078125 -1.8125 L 0.078125 -1.84375 C 0.109375 -1.851562 0.140625 -1.863281 0.171875 -1.875 C 0.210938 -1.894531 0.285156 -1.921875 0.390625 -1.953125 L 0.453125 -1.953125 C 0.453125 -1.898438 0.453125 -1.867188 0.453125 -1.859375 C 0.453125 -1.054688 0.453125 -0.582031 0.453125 -0.4375 C 0.441406 -0.34375 0.4375 -0.289062 0.4375 -0.28125 C 0.4375 -0.175781 0.441406 -0.117188 0.453125 -0.109375 C 0.460938 -0.0859375 0.5 -0.0703125 0.5625 -0.0625 C 0.625 -0.0625 0.660156 -0.0546875 0.671875 -0.046875 C 0.679688 -0.046875 0.6875 -0.0390625 0.6875 -0.03125 C 0.6875 -0.0195312 0.679688 -0.0078125 0.671875 0 C 0.671875 0 0.664062 0 0.65625 0 C 0.644531 0 0.59375 0 0.5 0 L 0.0625 0 C 0.0390625 0 0.03125 0 0.03125 0 C 0.0195312 -0.0078125 0.015625 -0.0195312 0.015625 -0.03125 C 0.015625 -0.0390625 0.015625 -0.046875 0.015625 -0.046875 C 0.0234375 -0.046875 0.0625 -0.0507812 0.125 -0.0625 C 0.1875 -0.0820312 0.222656 -0.09375 0.234375 -0.09375 C 0.242188 -0.101562 0.253906 -0.117188 0.265625 -0.140625 C 0.265625 -0.179688 0.265625 -0.28125 0.265625 -0.4375 L 0.265625 -1.65625 C 0.265625 -1.6875 0.257812 -1.707031 0.25 -1.71875 C 0.238281 -1.738281 0.21875 -1.753906 0.1875 -1.765625 C 0.132812 -1.785156 0.0976562 -1.800781 0.078125 -1.8125 Z M 0.078125 -1.8125 "/></g></g><g transform="translate(13.424747, 36.519787)"><g/></g><g transform="translate(14.174745, 36.519787)"><g><path d="M 1.28125 0 C 1.132812 -0.0078125 0.9375 -0.015625 0.6875 -0.015625 L 0.375 0 L 0.125 0 C 0.101562 0 0.0820312 -0.00390625 0.0625 -0.015625 C 0.0820312 -0.0546875 0.109375 -0.09375 0.140625 -0.125 C 0.210938 -0.21875 0.328125 -0.347656 0.484375 -0.515625 C 0.703125 -0.734375 0.847656 -0.90625 0.921875 -1.03125 C 0.992188 -1.15625 1.03125 -1.269531 1.03125 -1.375 C 1.03125 -1.476562 0.992188 -1.566406 0.921875 -1.640625 C 0.847656 -1.710938 0.757812 -1.75 0.65625 -1.75 C 0.59375 -1.75 0.53125 -1.734375 0.46875 -1.703125 C 0.414062 -1.671875 0.375 -1.632812 0.34375 -1.59375 C 0.320312 -1.5625 0.289062 -1.503906 0.25 -1.421875 C 0.226562 -1.378906 0.21875 -1.351562 0.21875 -1.34375 C 0.207031 -1.34375 0.203125 -1.34375 0.203125 -1.34375 C 0.191406 -1.34375 0.179688 -1.34375 0.171875 -1.34375 C 0.160156 -1.351562 0.15625 -1.363281 0.15625 -1.375 C 0.15625 -1.425781 0.175781 -1.5 0.21875 -1.59375 C 0.269531 -1.6875 0.335938 -1.757812 0.421875 -1.8125 C 0.515625 -1.875 0.617188 -1.90625 0.734375 -1.90625 C 0.878906 -1.90625 1 -1.851562 1.09375 -1.75 C 1.195312 -1.65625 1.25 -1.539062 1.25 -1.40625 C 1.25 -1.300781 1.210938 -1.191406 1.140625 -1.078125 C 1.078125 -0.972656 0.921875 -0.804688 0.671875 -0.578125 C 0.597656 -0.503906 0.539062 -0.445312 0.5 -0.40625 C 0.46875 -0.375 0.398438 -0.300781 0.296875 -0.1875 C 0.441406 -0.175781 0.578125 -0.171875 0.703125 -0.171875 C 0.734375 -0.171875 0.765625 -0.175781 0.796875 -0.1875 C 0.847656 -0.1875 0.878906 -0.1875 0.890625 -0.1875 L 1.09375 -0.171875 C 1.113281 -0.171875 1.132812 -0.179688 1.15625 -0.203125 C 1.1875 -0.234375 1.222656 -0.296875 1.265625 -0.390625 L 1.296875 -0.390625 C 1.296875 -0.390625 1.300781 -0.390625 1.3125 -0.390625 C 1.320312 -0.378906 1.328125 -0.375 1.328125 -0.375 L 1.328125 -0.359375 C 1.316406 -0.328125 1.304688 -0.273438 1.296875 -0.203125 C 1.296875 -0.160156 1.289062 -0.09375 1.28125 0 Z M 1.28125 0 "/></g></g><g transform="translate(15.580991, 36.519787)"><g><path d="M 1.3125 -0.921875 C 1.3125 -0.828125 1.304688 -0.738281 1.296875 -0.65625 C 1.265625 -0.519531 1.222656 -0.40625 1.171875 -0.3125 C 1.128906 -0.226562 1.078125 -0.15625 1.015625 -0.09375 C 0.960938 -0.0390625 0.910156 -0.00390625 0.859375 0.015625 C 0.804688 0.0351562 0.753906 0.046875 0.703125 0.046875 C 0.609375 0.046875 0.515625 0.015625 0.421875 -0.046875 C 0.335938 -0.117188 0.265625 -0.226562 0.203125 -0.375 C 0.140625 -0.519531 0.109375 -0.691406 0.109375 -0.890625 C 0.109375 -1.046875 0.125 -1.195312 0.15625 -1.34375 C 0.195312 -1.488281 0.25 -1.601562 0.3125 -1.6875 C 0.382812 -1.769531 0.453125 -1.828125 0.515625 -1.859375 C 0.578125 -1.890625 0.644531 -1.90625 0.71875 -1.90625 C 0.820312 -1.90625 0.921875 -1.863281 1.015625 -1.78125 C 1.117188 -1.707031 1.195312 -1.582031 1.25 -1.40625 C 1.289062 -1.289062 1.3125 -1.128906 1.3125 -0.921875 Z M 1.09375 -0.96875 C 1.09375 -1.207031 1.082031 -1.375 1.0625 -1.46875 C 1.039062 -1.601562 1 -1.695312 0.9375 -1.75 C 0.875 -1.8125 0.800781 -1.84375 0.71875 -1.84375 C 0.644531 -1.84375 0.578125 -1.816406 0.515625 -1.765625 C 0.453125 -1.722656 0.410156 -1.65625 0.390625 -1.5625 C 0.347656 -1.40625 0.328125 -1.171875 0.328125 -0.859375 C 0.328125 -0.546875 0.359375 -0.328125 0.421875 -0.203125 C 0.484375 -0.078125 0.578125 -0.015625 0.703125 -0.015625 C 0.785156 -0.015625 0.859375 -0.0390625 0.921875 -0.09375 C 0.984375 -0.144531 1.023438 -0.242188 1.046875 -0.390625 C 1.078125 -0.535156 1.09375 -0.695312 1.09375 -0.875 Z M 1.09375 -0.96875 "/></g></g><g transform="translate(16.987238, 36.519787)"><g><path d="M 1.0625 0 L 0.390625 0 C 0.390625 -0.0078125 0.390625 -0.0195312 0.390625 -0.03125 C 0.390625 -0.0390625 0.390625 -0.046875 0.390625 -0.046875 C 0.398438 -0.0546875 0.425781 -0.0664062 0.46875 -0.078125 C 0.519531 -0.0859375 0.566406 -0.101562 0.609375 -0.125 C 0.617188 -0.144531 0.625 -0.164062 0.625 -0.1875 L 0.625 -0.265625 C 0.625 -0.273438 0.625 -0.328125 0.625 -0.421875 C 0.625 -0.453125 0.625 -0.59375 0.625 -0.84375 L 0.625 -1.390625 C 0.625 -1.421875 0.625 -1.515625 0.625 -1.671875 C 0.40625 -1.515625 0.285156 -1.4375 0.265625 -1.4375 C 0.253906 -1.4375 0.242188 -1.4375 0.234375 -1.4375 C 0.222656 -1.445312 0.21875 -1.457031 0.21875 -1.46875 C 0.21875 -1.476562 0.222656 -1.488281 0.234375 -1.5 C 0.242188 -1.507812 0.273438 -1.53125 0.328125 -1.5625 C 0.335938 -1.5625 0.375 -1.585938 0.4375 -1.640625 C 0.53125 -1.710938 0.597656 -1.769531 0.640625 -1.8125 C 0.679688 -1.863281 0.707031 -1.894531 0.71875 -1.90625 C 0.738281 -1.90625 0.753906 -1.90625 0.765625 -1.90625 C 0.796875 -1.90625 0.8125 -1.898438 0.8125 -1.890625 C 0.820312 -1.878906 0.828125 -1.847656 0.828125 -1.796875 L 0.8125 -0.5 L 0.8125 -0.359375 C 0.8125 -0.328125 0.8125 -0.296875 0.8125 -0.265625 C 0.8125 -0.234375 0.8125 -0.210938 0.8125 -0.203125 C 0.8125 -0.160156 0.816406 -0.132812 0.828125 -0.125 C 0.828125 -0.125 0.84375 -0.117188 0.875 -0.109375 L 0.984375 -0.078125 C 1.023438 -0.0664062 1.046875 -0.0625 1.046875 -0.0625 C 1.054688 -0.0507812 1.0625 -0.0351562 1.0625 -0.015625 Z M 1.0625 0 "/></g></g><g transform="translate(18.393484, 36.519787)"><g><path d="M 0.15625 -1.859375 C 0.28125 -1.859375 0.441406 -1.859375 0.640625 -1.859375 C 0.734375 -1.859375 0.84375 -1.859375 0.96875 -1.859375 C 1.039062 -1.847656 1.085938 -1.84375 1.109375 -1.84375 L 1.25 -1.859375 L 1.28125 -1.859375 C 1.289062 -1.847656 1.296875 -1.835938 1.296875 -1.828125 C 1.296875 -1.816406 1.285156 -1.789062 1.265625 -1.75 C 1.253906 -1.726562 1.207031 -1.617188 1.125 -1.421875 C 1.082031 -1.328125 1.03125 -1.203125 0.96875 -1.046875 L 0.78125 -0.53125 C 0.738281 -0.40625 0.710938 -0.320312 0.703125 -0.28125 L 0.65625 -0.140625 C 0.644531 -0.0976562 0.640625 -0.0664062 0.640625 -0.046875 C 0.640625 -0.0351562 0.648438 -0.015625 0.671875 0.015625 C 0.660156 0.0234375 0.632812 0.03125 0.59375 0.03125 C 0.570312 0.03125 0.550781 0.0234375 0.53125 0.015625 C 0.539062 -0.046875 0.5625 -0.125 0.59375 -0.21875 C 0.601562 -0.25 0.617188 -0.3125 0.640625 -0.40625 C 0.671875 -0.507812 0.703125 -0.601562 0.734375 -0.6875 L 0.90625 -1.140625 C 0.945312 -1.265625 0.992188 -1.382812 1.046875 -1.5 C 1.054688 -1.53125 1.066406 -1.550781 1.078125 -1.5625 C 1.097656 -1.601562 1.109375 -1.632812 1.109375 -1.65625 L 0.875 -1.65625 C 0.875 -1.65625 0.851562 -1.65625 0.8125 -1.65625 C 0.78125 -1.65625 0.753906 -1.65625 0.734375 -1.65625 L 0.34375 -1.65625 C 0.289062 -1.65625 0.253906 -1.648438 0.234375 -1.640625 C 0.222656 -1.628906 0.21875 -1.59375 0.21875 -1.53125 C 0.21875 -1.519531 0.210938 -1.503906 0.203125 -1.484375 C 0.191406 -1.484375 0.1875 -1.484375 0.1875 -1.484375 C 0.175781 -1.484375 0.160156 -1.488281 0.140625 -1.5 C 0.140625 -1.519531 0.140625 -1.535156 0.140625 -1.546875 L 0.140625 -1.671875 C 0.140625 -1.742188 0.140625 -1.789062 0.140625 -1.8125 C 0.140625 -1.820312 0.144531 -1.835938 0.15625 -1.859375 Z M 0.15625 -1.859375 "/></g></g></g></svg>