<svg xmlns="http://www.w3.org/2000/svg" xmlns:xlink="http://www.w3.org/1999/xlink" width="96" zoomAndPan="magnify" viewBox="0 0 72 34.499999" height="46" preserveAspectRatio="xMidYMid meet" version="1.0"><defs><g/><clipPath id="3f2a8deaa9"><path d="M 0.515625 0 L 71.484375 0 L 71.484375 34.007812 L 0.515625 34.007812 Z M 0.515625 0 " clip-rule="nonzero"/></clipPath><clipPath id="cc11d6f27e"><path d="M 18.035156 6.210938 L 29.273438 6.210938 L 29.273438 26.910156 L 18.035156 26.910156 Z M 18.035156 6.210938 " clip-rule="nonzero"/></clipPath><clipPath id="1bb7ce5864"><path d="M 18.035156 6.210938 L 26.722656 6.210938 L 29.273438 16.558594 L 26.722656 26.910156 L 18.035156 26.910156 L 20.585938 16.558594 Z M 18.035156 6.210938 " clip-rule="nonzero"/></clipPath><clipPath id="b5a5e7250a"><path d="M 6.648438 8.613281 L 22.546875 8.613281 L 22.546875 24.507812 L 6.648438 24.507812 Z M 6.648438 8.613281 " clip-rule="nonzero"/></clipPath><clipPath id="044db5b6fa"><path d="M 14.597656 8.613281 C 10.207031 8.613281 6.648438 12.171875 6.648438 16.558594 C 6.648438 20.949219 10.207031 24.507812 14.597656 24.507812 C 18.988281 24.507812 22.546875 20.949219 22.546875 16.558594 C 22.546875 12.171875 18.988281 8.613281 14.597656 8.613281 Z M 14.597656 8.613281 " clip-rule="nonzero"/></clipPath><clipPath id="93a0ea9bd2"><path d="M 1.550781 6.210938 L 11.75 6.210938 L 11.75 26.910156 L 1.550781 26.910156 Z M 1.550781 6.210938 " clip-rule="nonzero"/></clipPath></defs><g clip-path="url(#3f2a8deaa9)"><path fill="#ffffff" d="M 0.515625 0 L 71.484375 0 L 71.484375 34.007812 L 0.515625 34.007812 Z M 0.515625 0 " fill-opacity="1" fill-rule="nonzero"/><path fill="#ffffff" d="M 0.515625 0 L 71.484375 0 L 71.484375 34.007812 L 0.515625 34.007812 Z M 0.515625 0 " fill-opacity="1" fill-rule="nonzero"/></g><g clip-path="url(#cc11d6f27e)"><g clip-path="url(#1bb7ce5864)"><path fill="#008d49" d="M 18.035156 6.210938 L 29.273438 6.210938 L 29.273438 26.910156 L 18.035156 26.910156 Z M 18.035156 6.210938 " fill-opacity="1" fill-rule="nonzero"/></g></g><g clip-path="url(#b5a5e7250a)"><g clip-path="url(#044db5b6fa)"><path fill="#ff9100" d="M 6.648438 8.613281 L 22.546875 8.613281 L 22.546875 24.507812 L 6.648438 24.507812 Z M 6.648438 8.613281 " fill-opacity="1" fill-rule="nonzero"/></g></g><g clip-path="url(#93a0ea9bd2)"><path fill="#0159aa" d="M 1.550781 6.210938 L 11.75 6.210938 L 11.75 26.910156 L 1.550781 26.910156 Z M 1.550781 6.210938 " fill-opacity="1" fill-rule="nonzero"/></g><path fill="#0159aa" d="M 34.300781 6.578125 C 34.300781 6.683594 34.261719 6.769531 34.191406 6.839844 C 34.121094 6.914062 34.03125 6.949219 33.929688 6.949219 C 33.828125 6.949219 33.742188 6.914062 33.667969 6.839844 C 33.597656 6.769531 33.558594 6.683594 33.558594 6.578125 C 33.558594 6.476562 33.597656 6.390625 33.667969 6.316406 C 33.742188 6.246094 33.828125 6.210938 33.929688 6.210938 C 34.03125 6.210938 34.121094 6.246094 34.191406 6.316406 C 34.261719 6.390625 34.300781 6.476562 34.300781 6.578125 Z M 34.300781 8.058594 C 34.300781 8.160156 34.261719 8.246094 34.191406 8.320312 C 34.121094 8.390625 34.03125 8.429688 33.929688 8.429688 C 33.828125 8.429688 33.742188 8.390625 33.667969 8.320312 C 33.597656 8.246094 33.558594 8.160156 33.558594 8.058594 C 33.558594 7.957031 33.597656 7.867188 33.667969 7.796875 C 33.742188 7.726562 33.828125 7.6875 33.929688 7.6875 C 34.03125 7.6875 34.121094 7.726562 34.191406 7.796875 C 34.261719 7.867188 34.300781 7.957031 34.300781 8.058594 Z M 34.300781 9.535156 C 34.300781 9.640625 34.261719 9.726562 34.191406 9.796875 C 34.121094 9.871094 34.03125 9.90625 33.929688 9.90625 C 33.828125 9.90625 33.742188 9.871094 33.667969 9.796875 C 33.597656 9.726562 33.558594 9.640625 33.558594 9.535156 C 33.558594 9.433594 33.597656 9.347656 33.667969 9.277344 C 33.742188 9.203125 33.828125 9.167969 33.929688 9.167969 C 34.03125 9.167969 34.121094 9.203125 34.191406 9.277344 C 34.261719 9.347656 34.300781 9.433594 34.300781 9.535156 Z M 34.300781 11.015625 C 34.300781 11.117188 34.261719 11.203125 34.191406 11.277344 C 34.121094 11.347656 34.03125 11.386719 33.929688 11.386719 C 33.828125 11.386719 33.742188 11.347656 33.667969 11.277344 C 33.597656 11.203125 33.558594 11.117188 33.558594 11.015625 C 33.558594 10.914062 33.597656 10.828125 33.667969 10.753906 C 33.742188 10.683594 33.828125 10.644531 33.929688 10.644531 C 34.03125 10.644531 34.121094 10.683594 34.191406 10.753906 C 34.261719 10.828125 34.300781 10.914062 34.300781 11.015625 Z M 34.300781 12.496094 C 34.300781 12.597656 34.261719 12.683594 34.191406 12.753906 C 34.121094 12.828125 34.03125 12.863281 33.929688 12.863281 C 33.828125 12.863281 33.742188 12.828125 33.667969 12.753906 C 33.597656 12.683594 33.558594 12.597656 33.558594 12.496094 C 33.558594 12.390625 33.597656 12.304688 33.667969 12.234375 C 33.742188 12.160156 33.828125 12.125 33.929688 12.125 C 34.03125 12.125 34.121094 12.160156 34.191406 12.234375 C 34.261719 12.304688 34.300781 12.390625 34.300781 12.496094 Z M 34.300781 13.972656 C 34.300781 14.074219 34.261719 14.164062 34.191406 14.234375 C 34.121094 14.304688 34.03125 14.34375 33.929688 14.34375 C 33.828125 14.34375 33.742188 14.304688 33.667969 14.234375 C 33.597656 14.164062 33.558594 14.074219 33.558594 13.972656 C 33.558594 13.871094 33.597656 13.785156 33.667969 13.710938 C 33.742188 13.640625 33.828125 13.601562 33.929688 13.601562 C 34.03125 13.601562 34.121094 13.640625 34.191406 13.710938 C 34.261719 13.785156 34.300781 13.871094 34.300781 13.972656 Z M 34.300781 15.453125 C 34.300781 15.554688 34.261719 15.640625 34.191406 15.714844 C 34.121094 15.785156 34.03125 15.820312 33.929688 15.820312 C 33.828125 15.820312 33.742188 15.785156 33.667969 15.714844 C 33.597656 15.640625 33.558594 15.554688 33.558594 15.453125 C 33.558594 15.347656 33.597656 15.261719 33.667969 15.191406 C 33.742188 15.117188 33.828125 15.082031 33.929688 15.082031 C 34.03125 15.082031 34.121094 15.117188 34.191406 15.191406 C 34.261719 15.261719 34.300781 15.347656 34.300781 15.453125 Z M 34.300781 16.929688 C 34.300781 17.03125 34.261719 17.121094 34.191406 17.191406 C 34.121094 17.265625 34.03125 17.300781 33.929688 17.300781 C 33.828125 17.300781 33.742188 17.265625 33.667969 17.191406 C 33.597656 17.121094 33.558594 17.03125 33.558594 16.929688 C 33.558594 16.828125 33.597656 16.742188 33.667969 16.667969 C 33.742188 16.597656 33.828125 16.558594 33.929688 16.558594 C 34.03125 16.558594 34.121094 16.597656 34.191406 16.667969 C 34.261719 16.742188 34.300781 16.828125 34.300781 16.929688 Z M 34.300781 18.410156 C 34.300781 18.511719 34.261719 18.597656 34.191406 18.671875 C 34.121094 18.742188 34.03125 18.777344 33.929688 18.777344 C 33.828125 18.777344 33.742188 18.742188 33.667969 18.671875 C 33.597656 18.597656 33.558594 18.511719 33.558594 18.410156 C 33.558594 18.308594 33.597656 18.21875 33.667969 18.148438 C 33.742188 18.074219 33.828125 18.039062 33.929688 18.039062 C 34.03125 18.039062 34.121094 18.074219 34.191406 18.148438 C 34.261719 18.21875 34.300781 18.308594 34.300781 18.410156 Z M 34.300781 19.886719 C 34.300781 19.988281 34.261719 20.078125 34.191406 20.148438 C 34.121094 20.222656 34.03125 20.257812 33.929688 20.257812 C 33.828125 20.257812 33.742188 20.222656 33.667969 20.148438 C 33.597656 20.078125 33.558594 19.988281 33.558594 19.886719 C 33.558594 19.785156 33.597656 19.699219 33.667969 19.625 C 33.742188 19.554688 33.828125 19.519531 33.929688 19.519531 C 34.03125 19.519531 34.121094 19.554688 34.191406 19.625 C 34.261719 19.699219 34.300781 19.785156 34.300781 19.886719 Z M 34.300781 21.367188 C 34.300781 21.46875 34.261719 21.554688 34.191406 21.628906 C 34.121094 21.699219 34.03125 21.734375 33.929688 21.734375 C 33.828125 21.734375 33.742188 21.699219 33.667969 21.628906 C 33.597656 21.554688 33.558594 21.46875 33.558594 21.367188 C 33.558594 21.265625 33.597656 21.175781 33.667969 21.105469 C 33.742188 21.03125 33.828125 20.996094 33.929688 20.996094 C 34.03125 20.996094 34.121094 21.03125 34.191406 21.105469 C 34.261719 21.175781 34.300781 21.265625 34.300781 21.367188 Z M 34.300781 22.84375 C 34.300781 22.945312 34.261719 23.035156 34.191406 23.105469 C 34.121094 23.179688 34.03125 23.214844 33.929688 23.214844 C 33.828125 23.214844 33.742188 23.179688 33.667969 23.105469 C 33.597656 23.035156 33.558594 22.945312 33.558594 22.84375 C 33.558594 22.742188 33.597656 22.65625 33.667969 22.582031 C 33.742188 22.511719 33.828125 22.476562 33.929688 22.476562 C 34.03125 22.476562 34.121094 22.511719 34.191406 22.582031 C 34.261719 22.65625 34.300781 22.742188 34.300781 22.84375 Z M 34.300781 24.324219 C 34.300781 24.425781 34.261719 24.511719 34.191406 24.585938 C 34.121094 24.65625 34.03125 24.691406 33.929688 24.691406 C 33.828125 24.691406 33.742188 24.65625 33.667969 24.585938 C 33.597656 24.511719 33.558594 24.425781 33.558594 24.324219 C 33.558594 24.222656 33.597656 24.132812 33.667969 24.0625 C 33.742188 23.988281 33.828125 23.953125 33.929688 23.953125 C 34.03125 23.953125 34.121094 23.988281 34.191406 24.0625 C 34.261719 24.132812 34.300781 24.222656 34.300781 24.324219 Z M 34.300781 25.800781 C 34.300781 25.902344 34.261719 25.992188 34.191406 26.0625 C 34.121094 26.136719 34.03125 26.171875 33.929688 26.171875 C 33.828125 26.171875 33.742188 26.136719 33.667969 26.0625 C 33.597656 25.992188 33.558594 25.902344 33.558594 25.800781 C 33.558594 25.699219 33.597656 25.613281 33.667969 25.539062 C 33.742188 25.46875 33.828125 25.433594 33.929688 25.433594 C 34.03125 25.433594 34.121094 25.46875 34.191406 25.539062 C 34.261719 25.613281 34.300781 25.699219 34.300781 25.800781 Z M 34.300781 25.800781 " fill-opacity="1" fill-rule="nonzero"/><g fill="#000000" fill-opacity="1"><g transform="translate(36.108209, 15.068395)"><g><path d="M 2.21875 -3.265625 C 2.476562 -3.265625 2.703125 -3.195312 2.890625 -3.0625 C 3.085938 -2.925781 3.238281 -2.734375 3.34375 -2.484375 C 3.457031 -2.242188 3.515625 -1.960938 3.515625 -1.640625 C 3.515625 -1.109375 3.382812 -0.691406 3.125 -0.390625 C 2.875 -0.0859375 2.535156 0.0625 2.109375 0.0625 C 1.929688 0.0625 1.757812 0.0195312 1.59375 -0.0625 C 1.4375 -0.144531 1.300781 -0.265625 1.1875 -0.421875 L 1.1875 0.96875 L 1.34375 0.96875 C 1.488281 0.96875 1.5625 1.023438 1.5625 1.140625 L 1.5625 1.296875 C 1.5625 1.410156 1.488281 1.46875 1.34375 1.46875 L 0.453125 1.46875 C 0.304688 1.46875 0.234375 1.410156 0.234375 1.296875 L 0.234375 1.140625 C 0.234375 1.023438 0.304688 0.96875 0.453125 0.96875 L 0.609375 0.96875 L 0.609375 -2.6875 L 0.453125 -2.6875 C 0.304688 -2.6875 0.234375 -2.742188 0.234375 -2.859375 L 0.234375 -3.015625 C 0.234375 -3.128906 0.304688 -3.1875 0.453125 -3.1875 L 0.953125 -3.1875 C 1.015625 -3.1875 1.066406 -3.164062 1.109375 -3.125 C 1.160156 -3.082031 1.1875 -3.023438 1.1875 -2.953125 L 1.1875 -2.5625 C 1.257812 -2.757812 1.394531 -2.925781 1.59375 -3.0625 C 1.789062 -3.195312 2 -3.265625 2.21875 -3.265625 Z M 2.046875 -0.4375 C 2.328125 -0.4375 2.539062 -0.539062 2.6875 -0.75 C 2.84375 -0.957031 2.921875 -1.265625 2.921875 -1.671875 C 2.921875 -2.015625 2.847656 -2.28125 2.703125 -2.46875 C 2.566406 -2.664062 2.363281 -2.765625 2.09375 -2.765625 C 1.925781 -2.765625 1.769531 -2.71875 1.625 -2.625 C 1.488281 -2.53125 1.378906 -2.40625 1.296875 -2.25 C 1.222656 -2.09375 1.1875 -1.921875 1.1875 -1.734375 L 1.1875 -0.90625 C 1.300781 -0.75 1.429688 -0.628906 1.578125 -0.546875 C 1.722656 -0.472656 1.878906 -0.4375 2.046875 -0.4375 Z M 2.046875 -0.4375 "/></g></g></g><g fill="#000000" fill-opacity="1"><g transform="translate(39.963004, 15.068395)"><g><path d="M 2.21875 -3.265625 C 2.382812 -3.265625 2.507812 -3.222656 2.59375 -3.140625 C 2.6875 -3.054688 2.734375 -2.945312 2.734375 -2.8125 C 2.734375 -2.695312 2.695312 -2.601562 2.625 -2.53125 C 2.5625 -2.457031 2.472656 -2.421875 2.359375 -2.421875 C 2.253906 -2.421875 2.164062 -2.453125 2.09375 -2.515625 C 2.03125 -2.578125 1.992188 -2.65625 1.984375 -2.75 C 1.847656 -2.738281 1.722656 -2.675781 1.609375 -2.5625 C 1.503906 -2.445312 1.414062 -2.300781 1.34375 -2.125 C 1.28125 -1.945312 1.25 -1.757812 1.25 -1.5625 L 1.25 -0.5 L 1.546875 -0.5 C 1.691406 -0.5 1.765625 -0.441406 1.765625 -0.328125 L 1.765625 -0.171875 C 1.765625 -0.0546875 1.691406 0 1.546875 0 L 0.515625 0 C 0.378906 0 0.3125 -0.0546875 0.3125 -0.171875 L 0.3125 -0.328125 C 0.3125 -0.441406 0.378906 -0.5 0.515625 -0.5 L 0.671875 -0.5 L 0.671875 -2.6875 L 0.515625 -2.6875 C 0.378906 -2.6875 0.3125 -2.742188 0.3125 -2.859375 L 0.3125 -3.015625 C 0.3125 -3.128906 0.378906 -3.1875 0.515625 -3.1875 L 1.015625 -3.1875 C 1.085938 -3.1875 1.144531 -3.164062 1.1875 -3.125 C 1.226562 -3.082031 1.25 -3.023438 1.25 -2.953125 L 1.25 -2.390625 C 1.332031 -2.660156 1.457031 -2.875 1.625 -3.03125 C 1.800781 -3.1875 2 -3.265625 2.21875 -3.265625 Z M 2.21875 -3.265625 "/></g></g></g><g fill="#000000" fill-opacity="1"><g transform="translate(42.878075, 15.068395)"><g><path d="M 1.84375 0.0625 C 1.539062 0.0625 1.273438 -0.00390625 1.046875 -0.140625 C 0.816406 -0.273438 0.640625 -0.460938 0.515625 -0.703125 C 0.390625 -0.953125 0.328125 -1.238281 0.328125 -1.5625 C 0.328125 -1.90625 0.390625 -2.203125 0.515625 -2.453125 C 0.648438 -2.710938 0.832031 -2.910156 1.0625 -3.046875 C 1.289062 -3.191406 1.554688 -3.265625 1.859375 -3.265625 C 2.160156 -3.265625 2.425781 -3.195312 2.65625 -3.0625 C 2.894531 -2.925781 3.070312 -2.734375 3.1875 -2.484375 C 3.3125 -2.234375 3.375 -1.945312 3.375 -1.625 C 3.375 -1.289062 3.3125 -0.992188 3.1875 -0.734375 C 3.0625 -0.484375 2.882812 -0.285156 2.65625 -0.140625 C 2.425781 -0.00390625 2.15625 0.0625 1.84375 0.0625 Z M 1.84375 -0.4375 C 2.144531 -0.4375 2.378906 -0.539062 2.546875 -0.75 C 2.710938 -0.957031 2.796875 -1.25 2.796875 -1.625 C 2.796875 -1.988281 2.710938 -2.269531 2.546875 -2.46875 C 2.390625 -2.664062 2.160156 -2.765625 1.859375 -2.765625 C 1.566406 -2.765625 1.332031 -2.65625 1.15625 -2.4375 C 0.988281 -2.226562 0.90625 -1.941406 0.90625 -1.578125 C 0.90625 -1.210938 0.988281 -0.929688 1.15625 -0.734375 C 1.320312 -0.535156 1.550781 -0.4375 1.84375 -0.4375 Z M 1.84375 -0.4375 "/></g></g></g><g fill="#000000" fill-opacity="1"><g transform="translate(46.592227, 15.068395)"><g><path d="M 3.40625 -3.1875 C 3.539062 -3.1875 3.609375 -3.128906 3.609375 -3.015625 L 3.609375 -2.859375 C 3.609375 -2.742188 3.539062 -2.6875 3.40625 -2.6875 L 3.234375 -2.6875 L 3.234375 -0.15625 C 3.234375 0.394531 3.109375 0.8125 2.859375 1.09375 C 2.609375 1.382812 2.238281 1.53125 1.75 1.53125 C 1.519531 1.53125 1.3125 1.492188 1.125 1.421875 C 0.9375 1.359375 0.789062 1.269531 0.6875 1.15625 C 0.582031 1.039062 0.53125 0.910156 0.53125 0.765625 C 0.53125 0.640625 0.5625 0.539062 0.625 0.46875 C 0.695312 0.394531 0.789062 0.359375 0.90625 0.359375 C 1.007812 0.359375 1.09375 0.390625 1.15625 0.453125 C 1.226562 0.523438 1.265625 0.613281 1.265625 0.71875 C 1.265625 0.789062 1.242188 0.847656 1.203125 0.890625 C 1.316406 0.984375 1.488281 1.03125 1.71875 1.03125 C 2.050781 1.03125 2.289062 0.9375 2.4375 0.75 C 2.59375 0.570312 2.671875 0.28125 2.671875 -0.125 L 2.671875 -0.640625 C 2.597656 -0.441406 2.460938 -0.273438 2.265625 -0.140625 C 2.066406 -0.00390625 1.851562 0.0625 1.625 0.0625 C 1.375 0.0625 1.148438 0 0.953125 -0.125 C 0.765625 -0.257812 0.613281 -0.445312 0.5 -0.6875 C 0.394531 -0.9375 0.34375 -1.226562 0.34375 -1.5625 C 0.34375 -2.09375 0.46875 -2.507812 0.71875 -2.8125 C 0.96875 -3.113281 1.3125 -3.265625 1.75 -3.265625 C 1.9375 -3.265625 2.113281 -3.21875 2.28125 -3.125 C 2.445312 -3.03125 2.585938 -2.898438 2.703125 -2.734375 L 2.734375 -2.984375 C 2.742188 -3.117188 2.816406 -3.1875 2.953125 -3.1875 Z M 1.75 -0.4375 C 1.914062 -0.4375 2.066406 -0.476562 2.203125 -0.5625 C 2.347656 -0.65625 2.460938 -0.78125 2.546875 -0.9375 C 2.628906 -1.101562 2.671875 -1.28125 2.671875 -1.46875 L 2.671875 -2.296875 C 2.554688 -2.441406 2.421875 -2.554688 2.265625 -2.640625 C 2.117188 -2.722656 1.96875 -2.765625 1.8125 -2.765625 C 1.519531 -2.765625 1.300781 -2.65625 1.15625 -2.4375 C 1.007812 -2.226562 0.9375 -1.925781 0.9375 -1.53125 C 0.9375 -1.1875 1.007812 -0.914062 1.15625 -0.71875 C 1.300781 -0.53125 1.5 -0.4375 1.75 -0.4375 Z M 1.75 -0.4375 "/></g></g></g><g fill="#000000" fill-opacity="1"><g transform="translate(50.447021, 15.068395)"><g><path d="M 1.84375 0.0625 C 1.539062 0.0625 1.273438 -0.00390625 1.046875 -0.140625 C 0.816406 -0.273438 0.640625 -0.460938 0.515625 -0.703125 C 0.390625 -0.953125 0.328125 -1.238281 0.328125 -1.5625 C 0.328125 -1.90625 0.390625 -2.203125 0.515625 -2.453125 C 0.648438 -2.710938 0.832031 -2.910156 1.0625 -3.046875 C 1.289062 -3.191406 1.554688 -3.265625 1.859375 -3.265625 C 2.160156 -3.265625 2.425781 -3.195312 2.65625 -3.0625 C 2.894531 -2.925781 3.070312 -2.734375 3.1875 -2.484375 C 3.3125 -2.234375 3.375 -1.945312 3.375 -1.625 C 3.375 -1.289062 3.3125 -0.992188 3.1875 -0.734375 C 3.0625 -0.484375 2.882812 -0.285156 2.65625 -0.140625 C 2.425781 -0.00390625 2.15625 0.0625 1.84375 0.0625 Z M 1.84375 -0.4375 C 2.144531 -0.4375 2.378906 -0.539062 2.546875 -0.75 C 2.710938 -0.957031 2.796875 -1.25 2.796875 -1.625 C 2.796875 -1.988281 2.710938 -2.269531 2.546875 -2.46875 C 2.390625 -2.664062 2.160156 -2.765625 1.859375 -2.765625 C 1.566406 -2.765625 1.332031 -2.65625 1.15625 -2.4375 C 0.988281 -2.226562 0.90625 -1.941406 0.90625 -1.578125 C 0.90625 -1.210938 0.988281 -0.929688 1.15625 -0.734375 C 1.320312 -0.535156 1.550781 -0.4375 1.84375 -0.4375 Z M 1.84375 -0.4375 "/></g></g></g><g fill="#000000" fill-opacity="1"><g transform="translate(54.161173, 15.068395)"><g><path d="M 2.578125 -1.046875 C 2.640625 -1.046875 2.695312 -1.023438 2.75 -0.984375 C 2.800781 -0.941406 2.828125 -0.894531 2.828125 -0.84375 C 2.828125 -0.769531 2.804688 -0.691406 2.765625 -0.609375 C 2.671875 -0.410156 2.554688 -0.25 2.421875 -0.125 C 2.285156 0 2.097656 0.0625 1.859375 0.0625 C 1.503906 0.0625 1.234375 -0.0390625 1.046875 -0.25 C 0.867188 -0.457031 0.78125 -0.757812 0.78125 -1.15625 L 0.78125 -2.703125 L 0.390625 -2.703125 C 0.316406 -2.703125 0.257812 -2.71875 0.21875 -2.75 C 0.175781 -2.789062 0.15625 -2.847656 0.15625 -2.921875 L 0.15625 -2.984375 C 0.15625 -3.054688 0.175781 -3.109375 0.21875 -3.140625 C 0.257812 -3.171875 0.316406 -3.1875 0.390625 -3.1875 L 0.78125 -3.1875 L 0.78125 -3.78125 C 0.78125 -3.851562 0.800781 -3.910156 0.84375 -3.953125 C 0.882812 -3.992188 0.941406 -4.015625 1.015625 -4.015625 L 1.140625 -4.015625 C 1.210938 -4.015625 1.265625 -3.992188 1.296875 -3.953125 C 1.335938 -3.910156 1.359375 -3.851562 1.359375 -3.78125 L 1.359375 -3.1875 L 2.1875 -3.1875 C 2.269531 -3.1875 2.328125 -3.171875 2.359375 -3.140625 C 2.398438 -3.109375 2.421875 -3.054688 2.421875 -2.984375 L 2.421875 -2.921875 C 2.421875 -2.847656 2.398438 -2.789062 2.359375 -2.75 C 2.328125 -2.71875 2.269531 -2.703125 2.1875 -2.703125 L 1.359375 -2.703125 L 1.359375 -1.171875 C 1.359375 -0.679688 1.53125 -0.4375 1.875 -0.4375 C 2.007812 -0.4375 2.109375 -0.46875 2.171875 -0.53125 C 2.234375 -0.601562 2.300781 -0.722656 2.375 -0.890625 C 2.40625 -0.953125 2.429688 -0.992188 2.453125 -1.015625 C 2.484375 -1.035156 2.523438 -1.046875 2.578125 -1.046875 Z M 2.578125 -1.046875 "/></g></g></g><g fill="#000000" fill-opacity="1"><g transform="translate(57.191306, 15.068395)"><g><path d="M 0.859375 -3.8125 C 0.742188 -3.8125 0.644531 -3.851562 0.5625 -3.9375 C 0.476562 -4.019531 0.4375 -4.117188 0.4375 -4.234375 C 0.4375 -4.359375 0.476562 -4.457031 0.5625 -4.53125 C 0.644531 -4.613281 0.742188 -4.65625 0.859375 -4.65625 C 0.984375 -4.65625 1.082031 -4.613281 1.15625 -4.53125 C 1.238281 -4.457031 1.28125 -4.359375 1.28125 -4.234375 C 1.28125 -4.117188 1.238281 -4.019531 1.15625 -3.9375 C 1.082031 -3.851562 0.984375 -3.8125 0.859375 -3.8125 Z M 0.515625 0 C 0.378906 0 0.3125 -0.0546875 0.3125 -0.171875 L 0.3125 -0.328125 C 0.3125 -0.441406 0.378906 -0.5 0.515625 -0.5 L 0.671875 -0.5 L 0.671875 -2.6875 L 0.515625 -2.6875 C 0.378906 -2.6875 0.3125 -2.742188 0.3125 -2.859375 L 0.3125 -3.015625 C 0.3125 -3.128906 0.378906 -3.1875 0.515625 -3.1875 L 1.015625 -3.1875 C 1.085938 -3.1875 1.144531 -3.164062 1.1875 -3.125 C 1.226562 -3.082031 1.25 -3.023438 1.25 -2.953125 L 1.25 -0.5 L 1.421875 -0.5 C 1.554688 -0.5 1.625 -0.441406 1.625 -0.328125 L 1.625 -0.171875 C 1.625 -0.0546875 1.554688 0 1.421875 0 Z M 0.515625 0 "/></g></g></g><g fill="#000000" fill-opacity="1"><g transform="translate(36.203268, 22.31338)"><g><path d="M 2.171875 0.0625 C 1.804688 0.0625 1.472656 0.00390625 1.171875 -0.109375 C 0.878906 -0.222656 0.601562 -0.40625 0.34375 -0.65625 L 0.65625 -1.015625 C 0.882812 -0.804688 1.117188 -0.648438 1.359375 -0.546875 C 1.597656 -0.441406 1.875 -0.390625 2.1875 -0.390625 C 2.488281 -0.390625 2.726562 -0.457031 2.90625 -0.59375 C 3.09375 -0.738281 3.1875 -0.925781 3.1875 -1.15625 C 3.1875 -1.257812 3.164062 -1.351562 3.125 -1.4375 C 3.09375 -1.519531 3.035156 -1.59375 2.953125 -1.65625 C 2.867188 -1.726562 2.75 -1.789062 2.59375 -1.84375 C 2.445312 -1.90625 2.253906 -1.960938 2.015625 -2.015625 C 1.765625 -2.066406 1.539062 -2.128906 1.34375 -2.203125 C 1.15625 -2.273438 1 -2.363281 0.875 -2.46875 C 0.757812 -2.570312 0.671875 -2.691406 0.609375 -2.828125 C 0.546875 -2.960938 0.515625 -3.117188 0.515625 -3.296875 L 0.515625 -3.3125 C 0.515625 -3.488281 0.550781 -3.648438 0.625 -3.796875 C 0.695312 -3.953125 0.796875 -4.082031 0.921875 -4.1875 C 1.054688 -4.300781 1.210938 -4.382812 1.390625 -4.4375 C 1.578125 -4.5 1.773438 -4.53125 1.984375 -4.53125 C 2.316406 -4.53125 2.601562 -4.484375 2.84375 -4.390625 C 3.09375 -4.304688 3.332031 -4.171875 3.5625 -3.984375 L 3.265625 -3.59375 C 3.054688 -3.769531 2.84375 -3.894531 2.625 -3.96875 C 2.414062 -4.039062 2.195312 -4.078125 1.96875 -4.078125 C 1.675781 -4.078125 1.441406 -4.007812 1.265625 -3.875 C 1.097656 -3.738281 1.015625 -3.566406 1.015625 -3.359375 L 1.015625 -3.34375 C 1.015625 -3.238281 1.03125 -3.144531 1.0625 -3.0625 C 1.101562 -2.976562 1.164062 -2.898438 1.25 -2.828125 C 1.34375 -2.765625 1.46875 -2.703125 1.625 -2.640625 C 1.78125 -2.585938 1.984375 -2.535156 2.234375 -2.484375 C 2.734375 -2.367188 3.097656 -2.210938 3.328125 -2.015625 C 3.566406 -1.816406 3.6875 -1.550781 3.6875 -1.21875 L 3.6875 -1.203125 C 3.6875 -1.003906 3.648438 -0.828125 3.578125 -0.671875 C 3.503906 -0.523438 3.398438 -0.394531 3.265625 -0.28125 C 3.128906 -0.164062 2.96875 -0.078125 2.78125 -0.015625 C 2.59375 0.0351562 2.390625 0.0625 2.171875 0.0625 Z M 2.171875 0.0625 "/></g></g></g><g fill="#000000" fill-opacity="1"><g transform="translate(40.29459, 22.31338)"><g><path d="M 2.03125 -1.765625 L 0.171875 -4.46875 L 0.78125 -4.46875 L 2.296875 -2.234375 L 3.8125 -4.46875 L 4.40625 -4.46875 L 2.546875 -1.78125 L 2.546875 0 L 2.03125 0 Z M 2.03125 -1.765625 "/></g></g></g><g fill="#000000" fill-opacity="1"><g transform="translate(44.871755, 22.31338)"><g><path d="M 2.171875 0.0625 C 1.804688 0.0625 1.472656 0.00390625 1.171875 -0.109375 C 0.878906 -0.222656 0.601562 -0.40625 0.34375 -0.65625 L 0.65625 -1.015625 C 0.882812 -0.804688 1.117188 -0.648438 1.359375 -0.546875 C 1.597656 -0.441406 1.875 -0.390625 2.1875 -0.390625 C 2.488281 -0.390625 2.726562 -0.457031 2.90625 -0.59375 C 3.09375 -0.738281 3.1875 -0.925781 3.1875 -1.15625 C 3.1875 -1.257812 3.164062 -1.351562 3.125 -1.4375 C 3.09375 -1.519531 3.035156 -1.59375 2.953125 -1.65625 C 2.867188 -1.726562 2.75 -1.789062 2.59375 -1.84375 C 2.445312 -1.90625 2.253906 -1.960938 2.015625 -2.015625 C 1.765625 -2.066406 1.539062 -2.128906 1.34375 -2.203125 C 1.15625 -2.273438 1 -2.363281 0.875 -2.46875 C 0.757812 -2.570312 0.671875 -2.691406 0.609375 -2.828125 C 0.546875 -2.960938 0.515625 -3.117188 0.515625 -3.296875 L 0.515625 -3.3125 C 0.515625 -3.488281 0.550781 -3.648438 0.625 -3.796875 C 0.695312 -3.953125 0.796875 -4.082031 0.921875 -4.1875 C 1.054688 -4.300781 1.210938 -4.382812 1.390625 -4.4375 C 1.578125 -4.5 1.773438 -4.53125 1.984375 -4.53125 C 2.316406 -4.53125 2.601562 -4.484375 2.84375 -4.390625 C 3.09375 -4.304688 3.332031 -4.171875 3.5625 -3.984375 L 3.265625 -3.59375 C 3.054688 -3.769531 2.84375 -3.894531 2.625 -3.96875 C 2.414062 -4.039062 2.195312 -4.078125 1.96875 -4.078125 C 1.675781 -4.078125 1.441406 -4.007812 1.265625 -3.875 C 1.097656 -3.738281 1.015625 -3.566406 1.015625 -3.359375 L 1.015625 -3.34375 C 1.015625 -3.238281 1.03125 -3.144531 1.0625 -3.0625 C 1.101562 -2.976562 1.164062 -2.898438 1.25 -2.828125 C 1.34375 -2.765625 1.46875 -2.703125 1.625 -2.640625 C 1.78125 -2.585938 1.984375 -2.535156 2.234375 -2.484375 C 2.734375 -2.367188 3.097656 -2.210938 3.328125 -2.015625 C 3.566406 -1.816406 3.6875 -1.550781 3.6875 -1.21875 L 3.6875 -1.203125 C 3.6875 -1.003906 3.648438 -0.828125 3.578125 -0.671875 C 3.503906 -0.523438 3.398438 -0.394531 3.265625 -0.28125 C 3.128906 -0.164062 2.96875 -0.078125 2.78125 -0.015625 C 2.59375 0.0351562 2.390625 0.0625 2.171875 0.0625 Z M 2.171875 0.0625 "/></g></g></g><g fill="#000000" fill-opacity="1"><g transform="translate(48.963078, 22.31338)"><g><path d="M 1.796875 -4 L 0.28125 -4 L 0.28125 -4.46875 L 3.8125 -4.46875 L 3.8125 -4 L 2.296875 -4 L 2.296875 0 L 1.796875 0 Z M 1.796875 -4 "/></g></g></g><g fill="#000000" fill-opacity="1"><g transform="translate(53.060789, 22.31338)"><g><path d="M 0.625 -4.46875 L 3.859375 -4.46875 L 3.859375 -4.015625 L 1.140625 -4.015625 L 1.140625 -2.484375 L 3.578125 -2.484375 L 3.578125 -2.03125 L 1.140625 -2.03125 L 1.140625 -0.453125 L 3.890625 -0.453125 L 3.890625 0 L 0.625 0 Z M 0.625 -4.46875 "/></g></g></g><g fill="#000000" fill-opacity="1"><g transform="translate(57.343891, 22.31338)"><g><path d="M 0.625 -4.46875 L 1.140625 -4.46875 L 2.78125 -2.03125 L 4.40625 -4.46875 L 4.921875 -4.46875 L 4.921875 0 L 4.40625 0 L 4.40625 -3.625 L 2.78125 -1.234375 L 2.75 -1.234375 L 1.125 -3.609375 L 1.125 0 L 0.625 0 Z M 0.625 -4.46875 "/></g></g></g><g fill="#000000" fill-opacity="1"><g transform="translate(62.892749, 22.31338)"><g><path d="M 2.171875 0.0625 C 1.804688 0.0625 1.472656 0.00390625 1.171875 -0.109375 C 0.878906 -0.222656 0.601562 -0.40625 0.34375 -0.65625 L 0.65625 -1.015625 C 0.882812 -0.804688 1.117188 -0.648438 1.359375 -0.546875 C 1.597656 -0.441406 1.875 -0.390625 2.1875 -0.390625 C 2.488281 -0.390625 2.726562 -0.457031 2.90625 -0.59375 C 3.09375 -0.738281 3.1875 -0.925781 3.1875 -1.15625 C 3.1875 -1.257812 3.164062 -1.351562 3.125 -1.4375 C 3.09375 -1.519531 3.035156 -1.59375 2.953125 -1.65625 C 2.867188 -1.726562 2.75 -1.789062 2.59375 -1.84375 C 2.445312 -1.90625 2.253906 -1.960938 2.015625 -2.015625 C 1.765625 -2.066406 1.539062 -2.128906 1.34375 -2.203125 C 1.15625 -2.273438 1 -2.363281 0.875 -2.46875 C 0.757812 -2.570312 0.671875 -2.691406 0.609375 -2.828125 C 0.546875 -2.960938 0.515625 -3.117188 0.515625 -3.296875 L 0.515625 -3.3125 C 0.515625 -3.488281 0.550781 -3.648438 0.625 -3.796875 C 0.695312 -3.953125 0.796875 -4.082031 0.921875 -4.1875 C 1.054688 -4.300781 1.210938 -4.382812 1.390625 -4.4375 C 1.578125 -4.5 1.773438 -4.53125 1.984375 -4.53125 C 2.316406 -4.53125 2.601562 -4.484375 2.84375 -4.390625 C 3.09375 -4.304688 3.332031 -4.171875 3.5625 -3.984375 L 3.265625 -3.59375 C 3.054688 -3.769531 2.84375 -3.894531 2.625 -3.96875 C 2.414062 -4.039062 2.195312 -4.078125 1.96875 -4.078125 C 1.675781 -4.078125 1.441406 -4.007812 1.265625 -3.875 C 1.097656 -3.738281 1.015625 -3.566406 1.015625 -3.359375 L 1.015625 -3.34375 C 1.015625 -3.238281 1.03125 -3.144531 1.0625 -3.0625 C 1.101562 -2.976562 1.164062 -2.898438 1.25 -2.828125 C 1.34375 -2.765625 1.46875 -2.703125 1.625 -2.640625 C 1.78125 -2.585938 1.984375 -2.535156 2.234375 -2.484375 C 2.734375 -2.367188 3.097656 -2.210938 3.328125 -2.015625 C 3.566406 -1.816406 3.6875 -1.550781 3.6875 -1.21875 L 3.6875 -1.203125 C 3.6875 -1.003906 3.648438 -0.828125 3.578125 -0.671875 C 3.503906 -0.523438 3.398438 -0.394531 3.265625 -0.28125 C 3.128906 -0.164062 2.96875 -0.078125 2.78125 -0.015625 C 2.59375 0.0351562 2.390625 0.0625 2.171875 0.0625 Z M 2.171875 0.0625 "/></g></g></g><g fill="#000000" fill-opacity="1"><g transform="translate(10.158895, 29.817859)"><g><path d="M 1 -1.421875 L 1.71875 0 L 1.484375 0 L 1.3125 -0.375 L 0.4375 -0.375 L 0.25 0 L 0.03125 0 L 0.75 -1.421875 Z M 0.515625 -0.53125 L 1.234375 -0.53125 L 0.875 -1.25 Z M 0.515625 -0.53125 "/></g></g></g><g fill="#000000" fill-opacity="1"><g transform="translate(11.909539, 29.817859)"><g/></g></g><g fill="#000000" fill-opacity="1"><g transform="translate(12.638974, 29.817859)"><g><path d="M 1.375 -1.046875 C 1.351562 -1.128906 1.304688 -1.191406 1.234375 -1.234375 C 1.171875 -1.273438 1.082031 -1.296875 0.96875 -1.296875 C 0.789062 -1.296875 0.648438 -1.242188 0.546875 -1.140625 C 0.453125 -1.035156 0.40625 -0.890625 0.40625 -0.703125 C 0.40625 -0.523438 0.453125 -0.382812 0.546875 -0.28125 C 0.648438 -0.175781 0.789062 -0.125 0.96875 -0.125 C 1.082031 -0.125 1.175781 -0.148438 1.25 -0.203125 C 1.320312 -0.253906 1.367188 -0.316406 1.390625 -0.390625 L 1.609375 -0.390625 C 1.597656 -0.253906 1.53125 -0.148438 1.40625 -0.078125 C 1.289062 -0.00390625 1.128906 0.03125 0.921875 0.03125 C 0.691406 0.03125 0.507812 -0.0351562 0.375 -0.171875 C 0.25 -0.316406 0.1875 -0.492188 0.1875 -0.703125 C 0.1875 -0.921875 0.253906 -1.097656 0.390625 -1.234375 C 0.535156 -1.378906 0.734375 -1.453125 0.984375 -1.453125 C 1.148438 -1.453125 1.289062 -1.414062 1.40625 -1.34375 C 1.519531 -1.269531 1.582031 -1.171875 1.59375 -1.046875 Z M 1.375 -1.046875 "/></g></g></g><g fill="#000000" fill-opacity="1"><g transform="translate(14.389618, 29.817859)"><g><path d="M 1.140625 -0.140625 C 1.148438 -0.078125 1.15625 -0.03125 1.15625 0 L 0.96875 0 C 0.96875 -0.0195312 0.96875 -0.0390625 0.96875 -0.0625 C 0.96875 -0.09375 0.96875 -0.117188 0.96875 -0.140625 C 0.90625 -0.0664062 0.84375 -0.0195312 0.78125 0 C 0.726562 0.0195312 0.644531 0.03125 0.53125 0.03125 C 0.40625 0.03125 0.300781 0.00390625 0.21875 -0.046875 C 0.144531 -0.109375 0.109375 -0.1875 0.109375 -0.28125 C 0.109375 -0.394531 0.15625 -0.476562 0.25 -0.53125 C 0.34375 -0.582031 0.484375 -0.609375 0.671875 -0.609375 C 0.804688 -0.609375 0.898438 -0.609375 0.953125 -0.609375 L 0.953125 -0.640625 C 0.953125 -0.722656 0.925781 -0.785156 0.875 -0.828125 C 0.832031 -0.867188 0.753906 -0.890625 0.640625 -0.890625 C 0.578125 -0.890625 0.519531 -0.875 0.46875 -0.84375 C 0.414062 -0.820312 0.390625 -0.785156 0.390625 -0.734375 L 0.1875 -0.734375 C 0.1875 -0.828125 0.226562 -0.898438 0.3125 -0.953125 C 0.40625 -1.003906 0.523438 -1.03125 0.671875 -1.03125 C 0.828125 -1.03125 0.941406 -1 1.015625 -0.9375 C 1.097656 -0.875 1.140625 -0.785156 1.140625 -0.671875 Z M 0.953125 -0.4375 L 0.953125 -0.484375 C 0.890625 -0.484375 0.847656 -0.484375 0.828125 -0.484375 C 0.816406 -0.484375 0.734375 -0.476562 0.578125 -0.46875 C 0.484375 -0.46875 0.414062 -0.453125 0.375 -0.421875 C 0.332031 -0.390625 0.3125 -0.347656 0.3125 -0.296875 C 0.3125 -0.234375 0.332031 -0.179688 0.375 -0.140625 C 0.425781 -0.109375 0.492188 -0.09375 0.578125 -0.09375 C 0.710938 -0.09375 0.804688 -0.117188 0.859375 -0.171875 C 0.921875 -0.234375 0.953125 -0.320312 0.953125 -0.4375 Z M 0.953125 -0.4375 "/></g></g></g><g fill="#000000" fill-opacity="1"><g transform="translate(15.702599, 29.817859)"><g><path d="M 1.28125 -0.5625 L 1.28125 0 L 1.078125 0 L 1.078125 -0.546875 C 1.078125 -0.648438 1.046875 -0.734375 0.984375 -0.796875 C 0.929688 -0.859375 0.859375 -0.890625 0.765625 -0.890625 C 0.648438 -0.890625 0.554688 -0.851562 0.484375 -0.78125 C 0.410156 -0.707031 0.375 -0.601562 0.375 -0.46875 L 0.375 0 L 0.1875 0 L 0.1875 -0.78125 C 0.1875 -0.800781 0.179688 -0.832031 0.171875 -0.875 C 0.171875 -0.914062 0.171875 -0.953125 0.171875 -0.984375 L 0.359375 -0.984375 C 0.359375 -0.960938 0.359375 -0.9375 0.359375 -0.90625 C 0.359375 -0.875 0.359375 -0.84375 0.359375 -0.8125 C 0.421875 -0.882812 0.484375 -0.9375 0.546875 -0.96875 C 0.617188 -1.007812 0.703125 -1.03125 0.796875 -1.03125 C 0.941406 -1.03125 1.054688 -0.988281 1.140625 -0.90625 C 1.234375 -0.820312 1.28125 -0.707031 1.28125 -0.5625 Z M 1.28125 -0.5625 "/></g></g></g><g fill="#000000" fill-opacity="1"><g transform="translate(17.161469, 29.817859)"><g><path d="M 1.140625 -0.140625 C 1.148438 -0.078125 1.15625 -0.03125 1.15625 0 L 0.96875 0 C 0.96875 -0.0195312 0.96875 -0.0390625 0.96875 -0.0625 C 0.96875 -0.09375 0.96875 -0.117188 0.96875 -0.140625 C 0.90625 -0.0664062 0.84375 -0.0195312 0.78125 0 C 0.726562 0.0195312 0.644531 0.03125 0.53125 0.03125 C 0.40625 0.03125 0.300781 0.00390625 0.21875 -0.046875 C 0.144531 -0.109375 0.109375 -0.1875 0.109375 -0.28125 C 0.109375 -0.394531 0.15625 -0.476562 0.25 -0.53125 C 0.34375 -0.582031 0.484375 -0.609375 0.671875 -0.609375 C 0.804688 -0.609375 0.898438 -0.609375 0.953125 -0.609375 L 0.953125 -0.640625 C 0.953125 -0.722656 0.925781 -0.785156 0.875 -0.828125 C 0.832031 -0.867188 0.753906 -0.890625 0.640625 -0.890625 C 0.578125 -0.890625 0.519531 -0.875 0.46875 -0.84375 C 0.414062 -0.820312 0.390625 -0.785156 0.390625 -0.734375 L 0.1875 -0.734375 C 0.1875 -0.828125 0.226562 -0.898438 0.3125 -0.953125 C 0.40625 -1.003906 0.523438 -1.03125 0.671875 -1.03125 C 0.828125 -1.03125 0.941406 -1 1.015625 -0.9375 C 1.097656 -0.875 1.140625 -0.785156 1.140625 -0.671875 Z M 0.953125 -0.4375 L 0.953125 -0.484375 C 0.890625 -0.484375 0.847656 -0.484375 0.828125 -0.484375 C 0.816406 -0.484375 0.734375 -0.476562 0.578125 -0.46875 C 0.484375 -0.46875 0.414062 -0.453125 0.375 -0.421875 C 0.332031 -0.390625 0.3125 -0.347656 0.3125 -0.296875 C 0.3125 -0.234375 0.332031 -0.179688 0.375 -0.140625 C 0.425781 -0.109375 0.492188 -0.09375 0.578125 -0.09375 C 0.710938 -0.09375 0.804688 -0.117188 0.859375 -0.171875 C 0.921875 -0.234375 0.953125 -0.320312 0.953125 -0.4375 Z M 0.953125 -0.4375 "/></g></g></g><g fill="#000000" fill-opacity="1"><g transform="translate(18.47445, 29.817859)"><g><path d="M 1.28125 -1.421875 L 1.28125 -0.21875 C 1.28125 -0.195312 1.28125 -0.164062 1.28125 -0.125 C 1.289062 -0.09375 1.296875 -0.0507812 1.296875 0 L 1.109375 0 C 1.097656 -0.0507812 1.09375 -0.0976562 1.09375 -0.140625 C 1.039062 -0.078125 0.976562 -0.03125 0.90625 0 C 0.832031 0.0195312 0.75 0.03125 0.65625 0.03125 C 0.5 0.03125 0.367188 -0.015625 0.265625 -0.109375 C 0.160156 -0.210938 0.109375 -0.34375 0.109375 -0.5 C 0.109375 -0.644531 0.160156 -0.769531 0.265625 -0.875 C 0.378906 -0.976562 0.507812 -1.03125 0.65625 -1.03125 C 0.757812 -1.03125 0.84375 -1.015625 0.90625 -0.984375 C 0.976562 -0.953125 1.039062 -0.910156 1.09375 -0.859375 L 1.09375 -1.421875 Z M 1.09375 -0.5 C 1.09375 -0.613281 1.054688 -0.707031 0.984375 -0.78125 C 0.910156 -0.851562 0.816406 -0.890625 0.703125 -0.890625 C 0.585938 -0.890625 0.492188 -0.851562 0.421875 -0.78125 C 0.347656 -0.707031 0.3125 -0.613281 0.3125 -0.5 C 0.3125 -0.375 0.347656 -0.273438 0.421875 -0.203125 C 0.492188 -0.128906 0.585938 -0.09375 0.703125 -0.09375 C 0.816406 -0.09375 0.910156 -0.128906 0.984375 -0.203125 C 1.054688 -0.273438 1.09375 -0.375 1.09375 -0.5 Z M 1.09375 -0.5 "/></g></g></g><g fill="#000000" fill-opacity="1"><g transform="translate(19.93332, 29.817859)"><g><path d="M 1.140625 -0.140625 C 1.148438 -0.078125 1.15625 -0.03125 1.15625 0 L 0.96875 0 C 0.96875 -0.0195312 0.96875 -0.0390625 0.96875 -0.0625 C 0.96875 -0.09375 0.96875 -0.117188 0.96875 -0.140625 C 0.90625 -0.0664062 0.84375 -0.0195312 0.78125 0 C 0.726562 0.0195312 0.644531 0.03125 0.53125 0.03125 C 0.40625 0.03125 0.300781 0.00390625 0.21875 -0.046875 C 0.144531 -0.109375 0.109375 -0.1875 0.109375 -0.28125 C 0.109375 -0.394531 0.15625 -0.476562 0.25 -0.53125 C 0.34375 -0.582031 0.484375 -0.609375 0.671875 -0.609375 C 0.804688 -0.609375 0.898438 -0.609375 0.953125 -0.609375 L 0.953125 -0.640625 C 0.953125 -0.722656 0.925781 -0.785156 0.875 -0.828125 C 0.832031 -0.867188 0.753906 -0.890625 0.640625 -0.890625 C 0.578125 -0.890625 0.519531 -0.875 0.46875 -0.84375 C 0.414062 -0.820312 0.390625 -0.785156 0.390625 -0.734375 L 0.1875 -0.734375 C 0.1875 -0.828125 0.226562 -0.898438 0.3125 -0.953125 C 0.40625 -1.003906 0.523438 -1.03125 0.671875 -1.03125 C 0.828125 -1.03125 0.941406 -1 1.015625 -0.9375 C 1.097656 -0.875 1.140625 -0.785156 1.140625 -0.671875 Z M 0.953125 -0.4375 L 0.953125 -0.484375 C 0.890625 -0.484375 0.847656 -0.484375 0.828125 -0.484375 C 0.816406 -0.484375 0.734375 -0.476562 0.578125 -0.46875 C 0.484375 -0.46875 0.414062 -0.453125 0.375 -0.421875 C 0.332031 -0.390625 0.3125 -0.347656 0.3125 -0.296875 C 0.3125 -0.234375 0.332031 -0.179688 0.375 -0.140625 C 0.425781 -0.109375 0.492188 -0.09375 0.578125 -0.09375 C 0.710938 -0.09375 0.804688 -0.117188 0.859375 -0.171875 C 0.921875 -0.234375 0.953125 -0.320312 0.953125 -0.4375 Z M 0.953125 -0.4375 "/></g></g></g><g fill="#000000" fill-opacity="1"><g transform="translate(21.246301, 29.817859)"><g><path d="M 0.765625 -0.609375 L 0.765625 -0.4375 L 0.109375 -0.4375 L 0.109375 -0.609375 Z M 0.765625 -0.609375 "/></g></g></g><g fill="#000000" fill-opacity="1"><g transform="translate(22.121622, 29.817859)"><g><path d="M 0.859375 -1.421875 C 1.046875 -1.421875 1.179688 -1.394531 1.265625 -1.34375 C 1.347656 -1.289062 1.390625 -1.195312 1.390625 -1.0625 C 1.390625 -0.96875 1.363281 -0.894531 1.3125 -0.84375 C 1.269531 -0.800781 1.203125 -0.769531 1.109375 -0.75 C 1.222656 -0.726562 1.304688 -0.6875 1.359375 -0.625 C 1.421875 -0.5625 1.453125 -0.484375 1.453125 -0.390625 C 1.453125 -0.265625 1.40625 -0.164062 1.3125 -0.09375 C 1.21875 -0.03125 1.085938 0 0.921875 0 L 0.1875 0 L 0.1875 -1.421875 Z M 0.921875 -0.828125 C 1.097656 -0.828125 1.1875 -0.898438 1.1875 -1.046875 C 1.1875 -1.117188 1.160156 -1.171875 1.109375 -1.203125 C 1.054688 -1.242188 0.96875 -1.265625 0.84375 -1.265625 L 0.390625 -1.265625 L 0.390625 -0.828125 Z M 0.875 -0.15625 C 1.007812 -0.15625 1.101562 -0.175781 1.15625 -0.21875 C 1.207031 -0.257812 1.234375 -0.320312 1.234375 -0.40625 C 1.234375 -0.570312 1.113281 -0.65625 0.875 -0.65625 L 0.390625 -0.65625 L 0.390625 -0.15625 Z M 0.875 -0.15625 "/></g></g></g><g fill="#000000" fill-opacity="1"><g transform="translate(23.726378, 29.817859)"><g><path d="M 1.140625 -0.140625 C 1.148438 -0.078125 1.15625 -0.03125 1.15625 0 L 0.96875 0 C 0.96875 -0.0195312 0.96875 -0.0390625 0.96875 -0.0625 C 0.96875 -0.09375 0.96875 -0.117188 0.96875 -0.140625 C 0.90625 -0.0664062 0.84375 -0.0195312 0.78125 0 C 0.726562 0.0195312 0.644531 0.03125 0.53125 0.03125 C 0.40625 0.03125 0.300781 0.00390625 0.21875 -0.046875 C 0.144531 -0.109375 0.109375 -0.1875 0.109375 -0.28125 C 0.109375 -0.394531 0.15625 -0.476562 0.25 -0.53125 C 0.34375 -0.582031 0.484375 -0.609375 0.671875 -0.609375 C 0.804688 -0.609375 0.898438 -0.609375 0.953125 -0.609375 L 0.953125 -0.640625 C 0.953125 -0.722656 0.925781 -0.785156 0.875 -0.828125 C 0.832031 -0.867188 0.753906 -0.890625 0.640625 -0.890625 C 0.578125 -0.890625 0.519531 -0.875 0.46875 -0.84375 C 0.414062 -0.820312 0.390625 -0.785156 0.390625 -0.734375 L 0.1875 -0.734375 C 0.1875 -0.828125 0.226562 -0.898438 0.3125 -0.953125 C 0.40625 -1.003906 0.523438 -1.03125 0.671875 -1.03125 C 0.828125 -1.03125 0.941406 -1 1.015625 -0.9375 C 1.097656 -0.875 1.140625 -0.785156 1.140625 -0.671875 Z M 0.953125 -0.4375 L 0.953125 -0.484375 C 0.890625 -0.484375 0.847656 -0.484375 0.828125 -0.484375 C 0.816406 -0.484375 0.734375 -0.476562 0.578125 -0.46875 C 0.484375 -0.46875 0.414062 -0.453125 0.375 -0.421875 C 0.332031 -0.390625 0.3125 -0.347656 0.3125 -0.296875 C 0.3125 -0.234375 0.332031 -0.179688 0.375 -0.140625 C 0.425781 -0.109375 0.492188 -0.09375 0.578125 -0.09375 C 0.710938 -0.09375 0.804688 -0.117188 0.859375 -0.171875 C 0.921875 -0.234375 0.953125 -0.320312 0.953125 -0.4375 Z M 0.953125 -0.4375 "/></g></g></g><g fill="#000000" fill-opacity="1"><g transform="translate(25.039359, 29.817859)"><g><path d="M 1.28125 -0.5625 L 1.28125 0 L 1.078125 0 L 1.078125 -0.546875 C 1.078125 -0.648438 1.046875 -0.734375 0.984375 -0.796875 C 0.929688 -0.859375 0.859375 -0.890625 0.765625 -0.890625 C 0.648438 -0.890625 0.554688 -0.851562 0.484375 -0.78125 C 0.410156 -0.707031 0.375 -0.601562 0.375 -0.46875 L 0.375 0 L 0.1875 0 L 0.1875 -0.78125 C 0.1875 -0.800781 0.179688 -0.832031 0.171875 -0.875 C 0.171875 -0.914062 0.171875 -0.953125 0.171875 -0.984375 L 0.359375 -0.984375 C 0.359375 -0.960938 0.359375 -0.9375 0.359375 -0.90625 C 0.359375 -0.875 0.359375 -0.84375 0.359375 -0.8125 C 0.421875 -0.882812 0.484375 -0.9375 0.546875 -0.96875 C 0.617188 -1.007812 0.703125 -1.03125 0.796875 -1.03125 C 0.941406 -1.03125 1.054688 -0.988281 1.140625 -0.90625 C 1.234375 -0.820312 1.28125 -0.707031 1.28125 -0.5625 Z M 1.28125 -0.5625 "/></g></g></g><g fill="#000000" fill-opacity="1"><g transform="translate(26.498229, 29.817859)"><g><path d="M 1.09375 -0.859375 C 1.09375 -0.890625 1.09375 -0.914062 1.09375 -0.9375 C 1.101562 -0.957031 1.109375 -0.972656 1.109375 -0.984375 L 1.296875 -0.984375 C 1.285156 -0.921875 1.28125 -0.863281 1.28125 -0.8125 L 1.28125 -0.140625 C 1.28125 0.0546875 1.234375 0.195312 1.140625 0.28125 C 1.046875 0.363281 0.890625 0.40625 0.671875 0.40625 C 0.492188 0.40625 0.363281 0.378906 0.28125 0.328125 C 0.195312 0.273438 0.148438 0.1875 0.140625 0.0625 L 0.34375 0.0625 C 0.351562 0.125 0.382812 0.171875 0.4375 0.203125 C 0.488281 0.242188 0.5625 0.265625 0.65625 0.265625 C 0.800781 0.265625 0.910156 0.234375 0.984375 0.171875 C 1.054688 0.117188 1.09375 0.0195312 1.09375 -0.125 L 1.09375 -0.1875 L 1.078125 -0.1875 C 1.035156 -0.132812 0.976562 -0.09375 0.90625 -0.0625 C 0.84375 -0.03125 0.765625 -0.015625 0.671875 -0.015625 C 0.503906 -0.015625 0.367188 -0.0625 0.265625 -0.15625 C 0.160156 -0.25 0.109375 -0.367188 0.109375 -0.515625 C 0.109375 -0.671875 0.160156 -0.796875 0.265625 -0.890625 C 0.367188 -0.984375 0.503906 -1.03125 0.671875 -1.03125 C 0.765625 -1.03125 0.84375 -1.015625 0.90625 -0.984375 C 0.976562 -0.953125 1.039062 -0.910156 1.09375 -0.859375 Z M 0.703125 -0.15625 C 0.828125 -0.15625 0.921875 -0.1875 0.984375 -0.25 C 1.054688 -0.320312 1.09375 -0.414062 1.09375 -0.53125 C 1.09375 -0.644531 1.054688 -0.734375 0.984375 -0.796875 C 0.921875 -0.859375 0.828125 -0.890625 0.703125 -0.890625 C 0.578125 -0.890625 0.476562 -0.859375 0.40625 -0.796875 C 0.34375 -0.734375 0.3125 -0.644531 0.3125 -0.53125 C 0.3125 -0.40625 0.34375 -0.3125 0.40625 -0.25 C 0.476562 -0.1875 0.578125 -0.15625 0.703125 -0.15625 Z M 0.703125 -0.15625 "/></g></g></g><g fill="#000000" fill-opacity="1"><g transform="translate(27.957098, 29.817859)"><g><path d="M 0.390625 -1.421875 L 0.390625 0 L 0.1875 0 L 0.1875 -1.421875 Z M 0.390625 -1.421875 "/></g></g></g><g fill="#000000" fill-opacity="1"><g transform="translate(28.540647, 29.817859)"><g><path d="M 1.140625 -0.140625 C 1.148438 -0.078125 1.15625 -0.03125 1.15625 0 L 0.96875 0 C 0.96875 -0.0195312 0.96875 -0.0390625 0.96875 -0.0625 C 0.96875 -0.09375 0.96875 -0.117188 0.96875 -0.140625 C 0.90625 -0.0664062 0.84375 -0.0195312 0.78125 0 C 0.726562 0.0195312 0.644531 0.03125 0.53125 0.03125 C 0.40625 0.03125 0.300781 0.00390625 0.21875 -0.046875 C 0.144531 -0.109375 0.109375 -0.1875 0.109375 -0.28125 C 0.109375 -0.394531 0.15625 -0.476562 0.25 -0.53125 C 0.34375 -0.582031 0.484375 -0.609375 0.671875 -0.609375 C 0.804688 -0.609375 0.898438 -0.609375 0.953125 -0.609375 L 0.953125 -0.640625 C 0.953125 -0.722656 0.925781 -0.785156 0.875 -0.828125 C 0.832031 -0.867188 0.753906 -0.890625 0.640625 -0.890625 C 0.578125 -0.890625 0.519531 -0.875 0.46875 -0.84375 C 0.414062 -0.820312 0.390625 -0.785156 0.390625 -0.734375 L 0.1875 -0.734375 C 0.1875 -0.828125 0.226562 -0.898438 0.3125 -0.953125 C 0.40625 -1.003906 0.523438 -1.03125 0.671875 -1.03125 C 0.828125 -1.03125 0.941406 -1 1.015625 -0.9375 C 1.097656 -0.875 1.140625 -0.785156 1.140625 -0.671875 Z M 0.953125 -0.4375 L 0.953125 -0.484375 C 0.890625 -0.484375 0.847656 -0.484375 0.828125 -0.484375 C 0.816406 -0.484375 0.734375 -0.476562 0.578125 -0.46875 C 0.484375 -0.46875 0.414062 -0.453125 0.375 -0.421875 C 0.332031 -0.390625 0.3125 -0.347656 0.3125 -0.296875 C 0.3125 -0.234375 0.332031 -0.179688 0.375 -0.140625 C 0.425781 -0.109375 0.492188 -0.09375 0.578125 -0.09375 C 0.710938 -0.09375 0.804688 -0.117188 0.859375 -0.171875 C 0.921875 -0.234375 0.953125 -0.320312 0.953125 -0.4375 Z M 0.953125 -0.4375 "/></g></g></g><g fill="#000000" fill-opacity="1"><g transform="translate(29.853628, 29.817859)"><g><path d="M 1.28125 -1.421875 L 1.28125 -0.21875 C 1.28125 -0.195312 1.28125 -0.164062 1.28125 -0.125 C 1.289062 -0.09375 1.296875 -0.0507812 1.296875 0 L 1.109375 0 C 1.097656 -0.0507812 1.09375 -0.0976562 1.09375 -0.140625 C 1.039062 -0.078125 0.976562 -0.03125 0.90625 0 C 0.832031 0.0195312 0.75 0.03125 0.65625 0.03125 C 0.5 0.03125 0.367188 -0.015625 0.265625 -0.109375 C 0.160156 -0.210938 0.109375 -0.34375 0.109375 -0.5 C 0.109375 -0.644531 0.160156 -0.769531 0.265625 -0.875 C 0.378906 -0.976562 0.507812 -1.03125 0.65625 -1.03125 C 0.757812 -1.03125 0.84375 -1.015625 0.90625 -0.984375 C 0.976562 -0.953125 1.039062 -0.910156 1.09375 -0.859375 L 1.09375 -1.421875 Z M 1.09375 -0.5 C 1.09375 -0.613281 1.054688 -0.707031 0.984375 -0.78125 C 0.910156 -0.851562 0.816406 -0.890625 0.703125 -0.890625 C 0.585938 -0.890625 0.492188 -0.851562 0.421875 -0.78125 C 0.347656 -0.707031 0.3125 -0.613281 0.3125 -0.5 C 0.3125 -0.375 0.347656 -0.273438 0.421875 -0.203125 C 0.492188 -0.128906 0.585938 -0.09375 0.703125 -0.09375 C 0.816406 -0.09375 0.910156 -0.128906 0.984375 -0.203125 C 1.054688 -0.273438 1.09375 -0.375 1.09375 -0.5 Z M 1.09375 -0.5 "/></g></g></g><g fill="#000000" fill-opacity="1"><g transform="translate(31.312498, 29.817859)"><g><path d="M 0.296875 -0.4375 C 0.304688 -0.332031 0.34375 -0.25 0.40625 -0.1875 C 0.46875 -0.125 0.550781 -0.09375 0.65625 -0.09375 C 0.738281 -0.09375 0.804688 -0.109375 0.859375 -0.140625 C 0.921875 -0.179688 0.960938 -0.234375 0.984375 -0.296875 L 1.1875 -0.296875 C 1.175781 -0.191406 1.125 -0.109375 1.03125 -0.046875 C 0.9375 0.00390625 0.816406 0.03125 0.671875 0.03125 C 0.492188 0.03125 0.351562 -0.0078125 0.25 -0.09375 C 0.144531 -0.1875 0.09375 -0.3125 0.09375 -0.46875 C 0.09375 -0.644531 0.144531 -0.78125 0.25 -0.875 C 0.351562 -0.976562 0.492188 -1.03125 0.671875 -1.03125 C 0.847656 -1.03125 0.984375 -0.984375 1.078125 -0.890625 C 1.171875 -0.796875 1.21875 -0.664062 1.21875 -0.5 L 1.21875 -0.4375 Z M 1.015625 -0.578125 C 1.015625 -0.671875 0.976562 -0.742188 0.90625 -0.796875 C 0.84375 -0.859375 0.757812 -0.890625 0.65625 -0.890625 C 0.5625 -0.890625 0.476562 -0.863281 0.40625 -0.8125 C 0.34375 -0.757812 0.304688 -0.679688 0.296875 -0.578125 Z M 1.015625 -0.578125 "/></g></g></g><g fill="#000000" fill-opacity="1"><g transform="translate(32.625479, 29.817859)"><g><path d="M 1.140625 -0.734375 L 0.953125 -0.734375 C 0.941406 -0.785156 0.910156 -0.820312 0.859375 -0.84375 C 0.816406 -0.875 0.753906 -0.890625 0.671875 -0.890625 C 0.578125 -0.890625 0.503906 -0.875 0.453125 -0.84375 C 0.398438 -0.820312 0.375 -0.789062 0.375 -0.75 C 0.375 -0.707031 0.390625 -0.675781 0.421875 -0.65625 C 0.453125 -0.632812 0.503906 -0.617188 0.578125 -0.609375 L 0.90625 -0.546875 C 1 -0.523438 1.066406 -0.492188 1.109375 -0.453125 C 1.160156 -0.410156 1.1875 -0.351562 1.1875 -0.28125 C 1.1875 -0.0703125 1.003906 0.03125 0.640625 0.03125 C 0.484375 0.03125 0.359375 0.00390625 0.265625 -0.046875 C 0.179688 -0.0976562 0.132812 -0.175781 0.125 -0.28125 L 0.328125 -0.28125 C 0.335938 -0.21875 0.367188 -0.171875 0.421875 -0.140625 C 0.472656 -0.109375 0.550781 -0.09375 0.65625 -0.09375 C 0.757812 -0.09375 0.835938 -0.109375 0.890625 -0.140625 C 0.941406 -0.171875 0.96875 -0.210938 0.96875 -0.265625 C 0.96875 -0.304688 0.9375 -0.335938 0.875 -0.359375 C 0.820312 -0.390625 0.726562 -0.410156 0.59375 -0.421875 C 0.457031 -0.441406 0.351562 -0.472656 0.28125 -0.515625 C 0.207031 -0.566406 0.171875 -0.632812 0.171875 -0.71875 C 0.171875 -0.820312 0.210938 -0.898438 0.296875 -0.953125 C 0.390625 -1.003906 0.507812 -1.03125 0.65625 -1.03125 C 0.800781 -1.03125 0.914062 -1.003906 1 -0.953125 C 1.082031 -0.898438 1.128906 -0.828125 1.140625 -0.734375 Z M 1.140625 -0.734375 "/></g></g></g><g fill="#000000" fill-opacity="1"><g transform="translate(33.93846, 29.817859)"><g><path d="M 0.375 -1.421875 L 0.375 -0.8125 C 0.425781 -0.882812 0.488281 -0.9375 0.5625 -0.96875 C 0.632812 -1.007812 0.710938 -1.03125 0.796875 -1.03125 C 0.941406 -1.03125 1.054688 -0.988281 1.140625 -0.90625 C 1.234375 -0.820312 1.28125 -0.707031 1.28125 -0.5625 L 1.28125 0 L 1.078125 0 L 1.078125 -0.546875 C 1.078125 -0.648438 1.046875 -0.734375 0.984375 -0.796875 C 0.929688 -0.859375 0.859375 -0.890625 0.765625 -0.890625 C 0.648438 -0.890625 0.554688 -0.851562 0.484375 -0.78125 C 0.410156 -0.707031 0.375 -0.601562 0.375 -0.46875 L 0.375 0 L 0.1875 0 L 0.1875 -1.421875 Z M 0.375 -1.421875 "/></g></g></g><g fill="#000000" fill-opacity="1"><g transform="translate(35.39733, 29.817859)"><g><path d="M 0.765625 -0.609375 L 0.765625 -0.4375 L 0.109375 -0.4375 L 0.109375 -0.609375 Z M 0.765625 -0.609375 "/></g></g></g><g fill="#000000" fill-opacity="1"><g transform="translate(36.272651, 29.817859)"><g><path d="M 1.25 -1.421875 L 1.25 -0.515625 C 1.25 -0.335938 1.195312 -0.203125 1.09375 -0.109375 C 0.988281 -0.015625 0.835938 0.03125 0.640625 0.03125 C 0.472656 0.03125 0.335938 -0.00390625 0.234375 -0.078125 C 0.140625 -0.160156 0.09375 -0.269531 0.09375 -0.40625 L 0.296875 -0.40625 C 0.304688 -0.3125 0.335938 -0.238281 0.390625 -0.1875 C 0.453125 -0.144531 0.539062 -0.125 0.65625 -0.125 C 0.914062 -0.125 1.046875 -0.257812 1.046875 -0.53125 L 1.046875 -1.421875 Z M 1.25 -1.421875 "/></g></g></g><g fill="#000000" fill-opacity="1"><g transform="translate(37.731521, 29.817859)"><g><path d="M 1.140625 -0.140625 C 1.148438 -0.078125 1.15625 -0.03125 1.15625 0 L 0.96875 0 C 0.96875 -0.0195312 0.96875 -0.0390625 0.96875 -0.0625 C 0.96875 -0.09375 0.96875 -0.117188 0.96875 -0.140625 C 0.90625 -0.0664062 0.84375 -0.0195312 0.78125 0 C 0.726562 0.0195312 0.644531 0.03125 0.53125 0.03125 C 0.40625 0.03125 0.300781 0.00390625 0.21875 -0.046875 C 0.144531 -0.109375 0.109375 -0.1875 0.109375 -0.28125 C 0.109375 -0.394531 0.15625 -0.476562 0.25 -0.53125 C 0.34375 -0.582031 0.484375 -0.609375 0.671875 -0.609375 C 0.804688 -0.609375 0.898438 -0.609375 0.953125 -0.609375 L 0.953125 -0.640625 C 0.953125 -0.722656 0.925781 -0.785156 0.875 -0.828125 C 0.832031 -0.867188 0.753906 -0.890625 0.640625 -0.890625 C 0.578125 -0.890625 0.519531 -0.875 0.46875 -0.84375 C 0.414062 -0.820312 0.390625 -0.785156 0.390625 -0.734375 L 0.1875 -0.734375 C 0.1875 -0.828125 0.226562 -0.898438 0.3125 -0.953125 C 0.40625 -1.003906 0.523438 -1.03125 0.671875 -1.03125 C 0.828125 -1.03125 0.941406 -1 1.015625 -0.9375 C 1.097656 -0.875 1.140625 -0.785156 1.140625 -0.671875 Z M 0.953125 -0.4375 L 0.953125 -0.484375 C 0.890625 -0.484375 0.847656 -0.484375 0.828125 -0.484375 C 0.816406 -0.484375 0.734375 -0.476562 0.578125 -0.46875 C 0.484375 -0.46875 0.414062 -0.453125 0.375 -0.421875 C 0.332031 -0.390625 0.3125 -0.347656 0.3125 -0.296875 C 0.3125 -0.234375 0.332031 -0.179688 0.375 -0.140625 C 0.425781 -0.109375 0.492188 -0.09375 0.578125 -0.09375 C 0.710938 -0.09375 0.804688 -0.117188 0.859375 -0.171875 C 0.921875 -0.234375 0.953125 -0.320312 0.953125 -0.4375 Z M 0.953125 -0.4375 "/></g></g></g><g fill="#000000" fill-opacity="1"><g transform="translate(39.044502, 29.817859)"><g><path d="M 1.34375 -0.5 C 1.34375 -0.34375 1.289062 -0.210938 1.1875 -0.109375 C 1.082031 -0.015625 0.953125 0.03125 0.796875 0.03125 C 0.703125 0.03125 0.617188 0.0195312 0.546875 0 C 0.472656 -0.03125 0.410156 -0.0703125 0.359375 -0.125 L 0.359375 0.375 L 0.171875 0.375 L 0.171875 -0.78125 C 0.171875 -0.800781 0.171875 -0.832031 0.171875 -0.875 C 0.171875 -0.914062 0.164062 -0.953125 0.15625 -0.984375 L 0.359375 -0.984375 C 0.359375 -0.921875 0.359375 -0.875 0.359375 -0.84375 C 0.410156 -0.90625 0.472656 -0.953125 0.546875 -0.984375 C 0.617188 -1.015625 0.703125 -1.03125 0.796875 -1.03125 C 0.953125 -1.03125 1.082031 -0.976562 1.1875 -0.875 C 1.289062 -0.769531 1.34375 -0.644531 1.34375 -0.5 Z M 0.75 -0.09375 C 0.863281 -0.09375 0.957031 -0.128906 1.03125 -0.203125 C 1.101562 -0.273438 1.140625 -0.375 1.140625 -0.5 C 1.140625 -0.613281 1.101562 -0.707031 1.03125 -0.78125 C 0.957031 -0.851562 0.863281 -0.890625 0.75 -0.890625 C 0.632812 -0.890625 0.539062 -0.851562 0.46875 -0.78125 C 0.394531 -0.707031 0.359375 -0.613281 0.359375 -0.5 C 0.359375 -0.375 0.394531 -0.273438 0.46875 -0.203125 C 0.539062 -0.128906 0.632812 -0.09375 0.75 -0.09375 Z M 0.75 -0.09375 "/></g></g></g><g fill="#000000" fill-opacity="1"><g transform="translate(40.503371, 29.817859)"><g><path d="M 1.140625 -0.140625 C 1.148438 -0.078125 1.15625 -0.03125 1.15625 0 L 0.96875 0 C 0.96875 -0.0195312 0.96875 -0.0390625 0.96875 -0.0625 C 0.96875 -0.09375 0.96875 -0.117188 0.96875 -0.140625 C 0.90625 -0.0664062 0.84375 -0.0195312 0.78125 0 C 0.726562 0.0195312 0.644531 0.03125 0.53125 0.03125 C 0.40625 0.03125 0.300781 0.00390625 0.21875 -0.046875 C 0.144531 -0.109375 0.109375 -0.1875 0.109375 -0.28125 C 0.109375 -0.394531 0.15625 -0.476562 0.25 -0.53125 C 0.34375 -0.582031 0.484375 -0.609375 0.671875 -0.609375 C 0.804688 -0.609375 0.898438 -0.609375 0.953125 -0.609375 L 0.953125 -0.640625 C 0.953125 -0.722656 0.925781 -0.785156 0.875 -0.828125 C 0.832031 -0.867188 0.753906 -0.890625 0.640625 -0.890625 C 0.578125 -0.890625 0.519531 -0.875 0.46875 -0.84375 C 0.414062 -0.820312 0.390625 -0.785156 0.390625 -0.734375 L 0.1875 -0.734375 C 0.1875 -0.828125 0.226562 -0.898438 0.3125 -0.953125 C 0.40625 -1.003906 0.523438 -1.03125 0.671875 -1.03125 C 0.828125 -1.03125 0.941406 -1 1.015625 -0.9375 C 1.097656 -0.875 1.140625 -0.785156 1.140625 -0.671875 Z M 0.953125 -0.4375 L 0.953125 -0.484375 C 0.890625 -0.484375 0.847656 -0.484375 0.828125 -0.484375 C 0.816406 -0.484375 0.734375 -0.476562 0.578125 -0.46875 C 0.484375 -0.46875 0.414062 -0.453125 0.375 -0.421875 C 0.332031 -0.390625 0.3125 -0.347656 0.3125 -0.296875 C 0.3125 -0.234375 0.332031 -0.179688 0.375 -0.140625 C 0.425781 -0.109375 0.492188 -0.09375 0.578125 -0.09375 C 0.710938 -0.09375 0.804688 -0.117188 0.859375 -0.171875 C 0.921875 -0.234375 0.953125 -0.320312 0.953125 -0.4375 Z M 0.953125 -0.4375 "/></g></g></g><g fill="#000000" fill-opacity="1"><g transform="translate(41.816353, 29.817859)"><g><path d="M 1.28125 -0.5625 L 1.28125 0 L 1.078125 0 L 1.078125 -0.546875 C 1.078125 -0.648438 1.046875 -0.734375 0.984375 -0.796875 C 0.929688 -0.859375 0.859375 -0.890625 0.765625 -0.890625 C 0.648438 -0.890625 0.554688 -0.851562 0.484375 -0.78125 C 0.410156 -0.707031 0.375 -0.601562 0.375 -0.46875 L 0.375 0 L 0.1875 0 L 0.1875 -0.78125 C 0.1875 -0.800781 0.179688 -0.832031 0.171875 -0.875 C 0.171875 -0.914062 0.171875 -0.953125 0.171875 -0.984375 L 0.359375 -0.984375 C 0.359375 -0.960938 0.359375 -0.9375 0.359375 -0.90625 C 0.359375 -0.875 0.359375 -0.84375 0.359375 -0.8125 C 0.421875 -0.882812 0.484375 -0.9375 0.546875 -0.96875 C 0.617188 -1.007812 0.703125 -1.03125 0.796875 -1.03125 C 0.941406 -1.03125 1.054688 -0.988281 1.140625 -0.90625 C 1.234375 -0.820312 1.28125 -0.707031 1.28125 -0.5625 Z M 1.28125 -0.5625 "/></g></g></g><g fill="#000000" fill-opacity="1"><g transform="translate(43.275222, 29.817859)"><g/></g></g><g fill="#000000" fill-opacity="1"><g transform="translate(44.004657, 29.817859)"><g><path d="M 1.25 -1.421875 L 1.25 -0.515625 C 1.25 -0.335938 1.195312 -0.203125 1.09375 -0.109375 C 0.988281 -0.015625 0.835938 0.03125 0.640625 0.03125 C 0.472656 0.03125 0.335938 -0.00390625 0.234375 -0.078125 C 0.140625 -0.160156 0.09375 -0.269531 0.09375 -0.40625 L 0.296875 -0.40625 C 0.304688 -0.3125 0.335938 -0.238281 0.390625 -0.1875 C 0.453125 -0.144531 0.539062 -0.125 0.65625 -0.125 C 0.914062 -0.125 1.046875 -0.257812 1.046875 -0.53125 L 1.046875 -1.421875 Z M 1.25 -1.421875 "/></g></g></g><g fill="#000000" fill-opacity="1"><g transform="translate(45.463527, 29.817859)"><g><path d="M 1.34375 -0.5 C 1.34375 -0.320312 1.289062 -0.1875 1.1875 -0.09375 C 1.082031 -0.0078125 0.929688 0.03125 0.734375 0.03125 C 0.535156 0.03125 0.378906 -0.0078125 0.265625 -0.09375 C 0.160156 -0.1875 0.109375 -0.320312 0.109375 -0.5 C 0.109375 -0.664062 0.160156 -0.796875 0.265625 -0.890625 C 0.367188 -0.984375 0.523438 -1.03125 0.734375 -1.03125 C 0.929688 -1.03125 1.082031 -0.984375 1.1875 -0.890625 C 1.289062 -0.796875 1.34375 -0.664062 1.34375 -0.5 Z M 0.734375 -0.09375 C 0.859375 -0.09375 0.957031 -0.128906 1.03125 -0.203125 C 1.101562 -0.273438 1.140625 -0.375 1.140625 -0.5 C 1.140625 -0.613281 1.101562 -0.707031 1.03125 -0.78125 C 0.957031 -0.851562 0.851562 -0.890625 0.71875 -0.890625 C 0.59375 -0.890625 0.492188 -0.851562 0.421875 -0.78125 C 0.347656 -0.707031 0.3125 -0.613281 0.3125 -0.5 C 0.3125 -0.375 0.347656 -0.273438 0.421875 -0.203125 C 0.503906 -0.128906 0.609375 -0.09375 0.734375 -0.09375 Z M 0.734375 -0.09375 "/></g></g></g><g fill="#000000" fill-opacity="1"><g transform="translate(46.922397, 29.817859)"><g><path d="M 0.390625 -1.421875 L 0.390625 -1.21875 L 0.1875 -1.21875 L 0.1875 -1.421875 Z M 0.390625 -0.984375 L 0.390625 0 L 0.1875 0 L 0.1875 -0.984375 Z M 0.390625 -0.984375 "/></g></g></g><g fill="#000000" fill-opacity="1"><g transform="translate(47.505946, 29.817859)"><g><path d="M 1.28125 -0.5625 L 1.28125 0 L 1.078125 0 L 1.078125 -0.546875 C 1.078125 -0.648438 1.046875 -0.734375 0.984375 -0.796875 C 0.929688 -0.859375 0.859375 -0.890625 0.765625 -0.890625 C 0.648438 -0.890625 0.554688 -0.851562 0.484375 -0.78125 C 0.410156 -0.707031 0.375 -0.601562 0.375 -0.46875 L 0.375 0 L 0.1875 0 L 0.1875 -0.78125 C 0.1875 -0.800781 0.179688 -0.832031 0.171875 -0.875 C 0.171875 -0.914062 0.171875 -0.953125 0.171875 -0.984375 L 0.359375 -0.984375 C 0.359375 -0.960938 0.359375 -0.9375 0.359375 -0.90625 C 0.359375 -0.875 0.359375 -0.84375 0.359375 -0.8125 C 0.421875 -0.882812 0.484375 -0.9375 0.546875 -0.96875 C 0.617188 -1.007812 0.703125 -1.03125 0.796875 -1.03125 C 0.941406 -1.03125 1.054688 -0.988281 1.140625 -0.90625 C 1.234375 -0.820312 1.28125 -0.707031 1.28125 -0.5625 Z M 1.28125 -0.5625 "/></g></g></g><g fill="#000000" fill-opacity="1"><g transform="translate(48.964815, 29.817859)"><g><path d="M 0.515625 -0.984375 L 0.796875 -0.984375 L 0.796875 -0.859375 L 0.515625 -0.859375 L 0.515625 -0.28125 C 0.515625 -0.226562 0.523438 -0.1875 0.546875 -0.15625 C 0.566406 -0.132812 0.601562 -0.125 0.65625 -0.125 C 0.675781 -0.125 0.695312 -0.125 0.71875 -0.125 C 0.75 -0.125 0.78125 -0.128906 0.8125 -0.140625 L 0.8125 0 C 0.738281 0.0078125 0.675781 0.015625 0.625 0.015625 C 0.507812 0.015625 0.425781 -0.00390625 0.375 -0.046875 C 0.332031 -0.0976562 0.3125 -0.175781 0.3125 -0.28125 L 0.3125 -0.859375 L 0.0625 -0.859375 L 0.0625 -0.984375 L 0.3125 -0.984375 L 0.3125 -1.171875 L 0.515625 -1.25 Z M 0.515625 -0.984375 "/></g></g></g><g fill="#000000" fill-opacity="1"><g transform="translate(49.840136, 29.817859)"><g/></g></g><g fill="#000000" fill-opacity="1"><g transform="translate(50.569571, 29.817859)"><g><path d="M 0.25 -1.421875 L 0.8125 -0.171875 L 1.359375 -1.421875 L 1.578125 -1.421875 L 0.921875 0 L 0.671875 0 L 0.03125 -1.421875 Z M 0.25 -1.421875 "/></g></g></g><g fill="#000000" fill-opacity="1"><g transform="translate(52.174326, 29.817859)"><g><path d="M 0.296875 -0.4375 C 0.304688 -0.332031 0.34375 -0.25 0.40625 -0.1875 C 0.46875 -0.125 0.550781 -0.09375 0.65625 -0.09375 C 0.738281 -0.09375 0.804688 -0.109375 0.859375 -0.140625 C 0.921875 -0.179688 0.960938 -0.234375 0.984375 -0.296875 L 1.1875 -0.296875 C 1.175781 -0.191406 1.125 -0.109375 1.03125 -0.046875 C 0.9375 0.00390625 0.816406 0.03125 0.671875 0.03125 C 0.492188 0.03125 0.351562 -0.0078125 0.25 -0.09375 C 0.144531 -0.1875 0.09375 -0.3125 0.09375 -0.46875 C 0.09375 -0.644531 0.144531 -0.78125 0.25 -0.875 C 0.351562 -0.976562 0.492188 -1.03125 0.671875 -1.03125 C 0.847656 -1.03125 0.984375 -0.984375 1.078125 -0.890625 C 1.171875 -0.796875 1.21875 -0.664062 1.21875 -0.5 L 1.21875 -0.4375 Z M 1.015625 -0.578125 C 1.015625 -0.671875 0.976562 -0.742188 0.90625 -0.796875 C 0.84375 -0.859375 0.757812 -0.890625 0.65625 -0.890625 C 0.5625 -0.890625 0.476562 -0.863281 0.40625 -0.8125 C 0.34375 -0.757812 0.304688 -0.679688 0.296875 -0.578125 Z M 1.015625 -0.578125 "/></g></g></g><g fill="#000000" fill-opacity="1"><g transform="translate(53.487308, 29.817859)"><g><path d="M 1.28125 -0.5625 L 1.28125 0 L 1.078125 0 L 1.078125 -0.546875 C 1.078125 -0.648438 1.046875 -0.734375 0.984375 -0.796875 C 0.929688 -0.859375 0.859375 -0.890625 0.765625 -0.890625 C 0.648438 -0.890625 0.554688 -0.851562 0.484375 -0.78125 C 0.410156 -0.707031 0.375 -0.601562 0.375 -0.46875 L 0.375 0 L 0.1875 0 L 0.1875 -0.78125 C 0.1875 -0.800781 0.179688 -0.832031 0.171875 -0.875 C 0.171875 -0.914062 0.171875 -0.953125 0.171875 -0.984375 L 0.359375 -0.984375 C 0.359375 -0.960938 0.359375 -0.9375 0.359375 -0.90625 C 0.359375 -0.875 0.359375 -0.84375 0.359375 -0.8125 C 0.421875 -0.882812 0.484375 -0.9375 0.546875 -0.96875 C 0.617188 -1.007812 0.703125 -1.03125 0.796875 -1.03125 C 0.941406 -1.03125 1.054688 -0.988281 1.140625 -0.90625 C 1.234375 -0.820312 1.28125 -0.707031 1.28125 -0.5625 Z M 1.28125 -0.5625 "/></g></g></g><g fill="#000000" fill-opacity="1"><g transform="translate(54.946177, 29.817859)"><g><path d="M 0.515625 -0.984375 L 0.796875 -0.984375 L 0.796875 -0.859375 L 0.515625 -0.859375 L 0.515625 -0.28125 C 0.515625 -0.226562 0.523438 -0.1875 0.546875 -0.15625 C 0.566406 -0.132812 0.601562 -0.125 0.65625 -0.125 C 0.675781 -0.125 0.695312 -0.125 0.71875 -0.125 C 0.75 -0.125 0.78125 -0.128906 0.8125 -0.140625 L 0.8125 0 C 0.738281 0.0078125 0.675781 0.015625 0.625 0.015625 C 0.507812 0.015625 0.425781 -0.00390625 0.375 -0.046875 C 0.332031 -0.0976562 0.3125 -0.175781 0.3125 -0.28125 L 0.3125 -0.859375 L 0.0625 -0.859375 L 0.0625 -0.984375 L 0.3125 -0.984375 L 0.3125 -1.171875 L 0.515625 -1.25 Z M 0.515625 -0.984375 "/></g></g></g><g fill="#000000" fill-opacity="1"><g transform="translate(55.821498, 29.817859)"><g><path d="M 0.375 -0.984375 L 0.375 -0.4375 C 0.375 -0.332031 0.398438 -0.25 0.453125 -0.1875 C 0.515625 -0.125 0.59375 -0.09375 0.6875 -0.09375 C 0.800781 -0.09375 0.894531 -0.128906 0.96875 -0.203125 C 1.039062 -0.285156 1.078125 -0.390625 1.078125 -0.515625 L 1.078125 -0.984375 L 1.28125 -0.984375 L 1.28125 -0.21875 C 1.28125 -0.1875 1.28125 -0.148438 1.28125 -0.109375 C 1.28125 -0.078125 1.28125 -0.0390625 1.28125 0 L 1.109375 0 C 1.097656 -0.03125 1.09375 -0.0546875 1.09375 -0.078125 C 1.09375 -0.109375 1.09375 -0.140625 1.09375 -0.171875 C 1.03125 -0.0976562 0.960938 -0.046875 0.890625 -0.015625 C 0.828125 0.015625 0.75 0.03125 0.65625 0.03125 C 0.507812 0.03125 0.394531 -0.00390625 0.3125 -0.078125 C 0.226562 -0.160156 0.1875 -0.273438 0.1875 -0.421875 L 0.1875 -0.984375 Z M 0.375 -0.984375 "/></g></g></g><g fill="#000000" fill-opacity="1"><g transform="translate(57.280368, 29.817859)"><g><path d="M 0.828125 -0.828125 C 0.816406 -0.835938 0.800781 -0.84375 0.78125 -0.84375 C 0.769531 -0.84375 0.753906 -0.84375 0.734375 -0.84375 C 0.617188 -0.84375 0.53125 -0.804688 0.46875 -0.734375 C 0.40625 -0.671875 0.375 -0.585938 0.375 -0.484375 L 0.375 0 L 0.1875 0 L 0.1875 -0.78125 C 0.1875 -0.800781 0.179688 -0.832031 0.171875 -0.875 C 0.171875 -0.914062 0.171875 -0.953125 0.171875 -0.984375 L 0.359375 -0.984375 C 0.359375 -0.953125 0.359375 -0.921875 0.359375 -0.890625 C 0.359375 -0.859375 0.359375 -0.828125 0.359375 -0.796875 C 0.410156 -0.878906 0.460938 -0.929688 0.515625 -0.953125 C 0.578125 -0.984375 0.660156 -1 0.765625 -1 L 0.828125 -1 Z M 0.828125 -0.828125 "/></g></g></g><g fill="#000000" fill-opacity="1"><g transform="translate(58.155689, 29.817859)"><g><path d="M 0.296875 -0.4375 C 0.304688 -0.332031 0.34375 -0.25 0.40625 -0.1875 C 0.46875 -0.125 0.550781 -0.09375 0.65625 -0.09375 C 0.738281 -0.09375 0.804688 -0.109375 0.859375 -0.140625 C 0.921875 -0.179688 0.960938 -0.234375 0.984375 -0.296875 L 1.1875 -0.296875 C 1.175781 -0.191406 1.125 -0.109375 1.03125 -0.046875 C 0.9375 0.00390625 0.816406 0.03125 0.671875 0.03125 C 0.492188 0.03125 0.351562 -0.0078125 0.25 -0.09375 C 0.144531 -0.1875 0.09375 -0.3125 0.09375 -0.46875 C 0.09375 -0.644531 0.144531 -0.78125 0.25 -0.875 C 0.351562 -0.976562 0.492188 -1.03125 0.671875 -1.03125 C 0.847656 -1.03125 0.984375 -0.984375 1.078125 -0.890625 C 1.171875 -0.796875 1.21875 -0.664062 1.21875 -0.5 L 1.21875 -0.4375 Z M 1.015625 -0.578125 C 1.015625 -0.671875 0.976562 -0.742188 0.90625 -0.796875 C 0.84375 -0.859375 0.757812 -0.890625 0.65625 -0.890625 C 0.5625 -0.890625 0.476562 -0.863281 0.40625 -0.8125 C 0.34375 -0.757812 0.304688 -0.679688 0.296875 -0.578125 Z M 1.015625 -0.578125 "/></g></g></g></svg>